<mxfile host="app.diagrams.net" agent="Mozilla/5.0 (Macintosh; Intel Mac OS X 10_15_7) AppleWebKit/537.36 (KHTML, like Gecko) Chrome/138.0.0.0 Safari/537.36 OPR/122.0.0.0" version="28.2.7">
  <diagram name="Page-1" id="4Y1hy9LXeHZ7-Y0yEU8Q">
    <mxGraphModel dx="1465" dy="744" grid="0" gridSize="10" guides="1" tooltips="1" connect="1" arrows="1" fold="1" page="1" pageScale="1" pageWidth="1169" pageHeight="827" math="0" shadow="0">
      <root>
        <mxCell id="0" />
        <mxCell id="1" parent="0" />
        <mxCell id="aSwbKpvJS9M24WGZRWCX-20" value="" style="rounded=0;whiteSpace=wrap;html=1;fillColor=none;dashed=1;" vertex="1" parent="1">
          <mxGeometry x="31" y="20" width="199" height="280" as="geometry" />
        </mxCell>
        <mxCell id="aSwbKpvJS9M24WGZRWCX-3" style="edgeStyle=orthogonalEdgeStyle;rounded=0;orthogonalLoop=1;jettySize=auto;html=1;entryX=0;entryY=0.5;entryDx=0;entryDy=0;" edge="1" parent="1" source="aSwbKpvJS9M24WGZRWCX-1" target="aSwbKpvJS9M24WGZRWCX-2">
          <mxGeometry relative="1" as="geometry" />
        </mxCell>
        <mxCell id="aSwbKpvJS9M24WGZRWCX-1" value="BUILD" style="rounded=1;whiteSpace=wrap;html=1;" vertex="1" parent="1">
          <mxGeometry x="40" y="35" width="170" height="70" as="geometry" />
        </mxCell>
        <mxCell id="aSwbKpvJS9M24WGZRWCX-2" value="DEPLOY" style="rounded=1;whiteSpace=wrap;html=1;" vertex="1" parent="1">
          <mxGeometry x="270" y="40" width="120" height="60" as="geometry" />
        </mxCell>
        <mxCell id="aSwbKpvJS9M24WGZRWCX-4" value="BUILD APP" style="rounded=1;whiteSpace=wrap;html=1;" vertex="1" parent="1">
          <mxGeometry x="40" y="135" width="80" height="40" as="geometry" />
        </mxCell>
        <mxCell id="aSwbKpvJS9M24WGZRWCX-10" style="edgeStyle=orthogonalEdgeStyle;rounded=0;orthogonalLoop=1;jettySize=auto;html=1;" edge="1" parent="1" source="aSwbKpvJS9M24WGZRWCX-5" target="aSwbKpvJS9M24WGZRWCX-9">
          <mxGeometry relative="1" as="geometry" />
        </mxCell>
        <mxCell id="aSwbKpvJS9M24WGZRWCX-5" value="UPLOAD CDN" style="rounded=1;whiteSpace=wrap;html=1;" vertex="1" parent="1">
          <mxGeometry x="130" y="135" width="80" height="40" as="geometry" />
        </mxCell>
        <mxCell id="aSwbKpvJS9M24WGZRWCX-7" value="" style="endArrow=classic;html=1;rounded=0;exitX=0.5;exitY=1;exitDx=0;exitDy=0;entryX=0.5;entryY=0;entryDx=0;entryDy=0;" edge="1" parent="1" source="aSwbKpvJS9M24WGZRWCX-1" target="aSwbKpvJS9M24WGZRWCX-5">
          <mxGeometry width="50" height="50" relative="1" as="geometry">
            <mxPoint x="-90" y="165" as="sourcePoint" />
            <mxPoint x="-40" y="115" as="targetPoint" />
          </mxGeometry>
        </mxCell>
        <mxCell id="aSwbKpvJS9M24WGZRWCX-8" value="" style="endArrow=classic;html=1;rounded=0;exitX=0.5;exitY=1;exitDx=0;exitDy=0;entryX=0.5;entryY=0;entryDx=0;entryDy=0;" edge="1" parent="1" source="aSwbKpvJS9M24WGZRWCX-1" target="aSwbKpvJS9M24WGZRWCX-4">
          <mxGeometry width="50" height="50" relative="1" as="geometry">
            <mxPoint x="150" y="115" as="sourcePoint" />
            <mxPoint x="200" y="155" as="targetPoint" />
          </mxGeometry>
        </mxCell>
        <mxCell id="aSwbKpvJS9M24WGZRWCX-9" value="S3 Production" style="shape=image;verticalLabelPosition=bottom;labelBackgroundColor=default;verticalAlign=top;aspect=fixed;imageAspect=0;image=data:image/png,iVBORw0KGgoAAAANSUhEUgAAAMQAAADMCAYAAAAs9QwGAAAAAXNSR0IArs4c6QAAAERlWElmTU0AKgAAAAgAAYdpAAQAAAABAAAAGgAAAAAAA6ABAAMAAAABAAEAAKACAAQAAAABAAAAxKADAAQAAAABAAAAzAAAAAD7w/MEAAAfJElEQVR4Ae1dX5rTuLKXnOb59FnBZFZAzgKAsAK6YQHA6x3OB6wAWAHwDdxXmgUw3ayAAAsgs4JpVjC5z9Ox7q9kO+0kjlS2JcdJyh9NbOtfqayfVaUql5SSQzggHBAOCAeEA8IB4YBwQDggHBAO8Dmg+VkPN+ez8/HxlVKjjAPzY5Xq/Fwpnah/GWMW1wWXjNJDMHdYXPN+zWQtn0lmSpk/i/tGmZlOBlO6TpWa/e/pxJ4X6fLbjgMHDwgM9iEGOwbvfGhSDOKlAa7H7djbXWmj1KVW5lKVAZQkE6Lg3enE/tK5HG4OHAQgije8SeejJNG/0Bu92Rvczcyep9JMMzUmIeD8VImZpmpwKTPM8lPbO0A8OR+PywMfQs0IXT5e7rZcrXBgqoy+tKIZZpUjzDZvTie4PrxjpwHxP+fjkU7nY6WSm1pbOZ4GvxxhOGBnFADlq8pAMgVIcG+/j50BRCH2qDQdK23u4M0/3u9H07/ekZ4CgEySJP06UIPJPs4ivQYEiT8ZANQ9DA95+/cMIysAudiHGaRXgKAVn7maQwdI7mEWOOnZ8xdy/ByALqI+p0lysavK+tYBQSD4J52faK0fgt+7OgtAtjZT13hB/6YmVf9X5MEq1y9ap8Piuvp3p8XCmTH6Qifp53en3y+q+9e/u1sBRP9BkBnIFkuU9NywTKnUAANfqW2twtAiQpKvmBV2E6IH+tRNpdNj/OKvly+VHBz6Y99tIp0BgpRiiEMneGs87cFDw+A2M7uCQuNpzwxYxOvMsp5Z1QtjYx9sL6R3aKM+HiXJWR+V8uiAyJZGzVMsi55g6NEbrMujtL4uhqiC8bRYsZhhsGK3PaBgJtbqbZ9EqmiAeHJ+6wQKFmaDzuRgWGE13vzpn+Tr0/epuRicffldzCq0rA0RzMCug8Ex7IK+bLXKvL2RDGjWmHXR5qY2ggPiv+e3HqVGv4jPTLxdDsxotOkhxrpPut6VmgMY+o4xaox2RrHayuuFGKveQpx6sy1gBANEfCBcA0De/pGH5Ybqs1lkDnErOkC2BozWgLDGM5O+Bg+Dvj1oGk20uoC789c+yZgbxspB3iaA0EJJmiZ3IumIM9T7/PfT72ddMbgxIIgZ/6TmNQh+FJBYKMG7bdgJyIudq4r0Rpo9UqPwq4bhOmAmqR4878LY1wgQmcKsP6DDx207XVKoyPR/2bY+Kd8PDkRZXTTq1bsH317G7GEtQAScFayhxiT6bReoj8lAqdvPAfsCTZOHYdxxzORID05jKd1sQAAMwyuTnqP7bXSFKUSst13KhP7HJTm64oAdQ2n6yGj1EANv2KLdWaqTuzFepixAWJcBk35BBxqJSLAPnOmk/2b7Fg9IitbkAK1KYin3YRs7FV6uj0O/XL2AaAMGAsKNRL8S3aDmaDmg7Nkq5fxFU2CEBoUTEE3BIEA4oBEdqKutgAHxKZRtaiMgSIGGzkBiUg2dgXxTBq9CEReI11LNDnEgE6U02bXqiOezI538J4QkAm/i6mOuUkxjbDBg1cg8f3f/ezCkVlMld/edA6QTYHD/qrV6U6OveHnPP9TIvzFr5QyRi0o/NpZaTpiiA7QMdrl8W66EA+04UNfeFUKfqJwhktTQ7OA9SFd4d/9bkKnK25hkODgOkMsOLa+i41NO58mplJPPlWdthsjtDX+5ClEageH9g6+PffkkXTjQlgO19NmWCvbaDEEf+Xs7gG9lBQxeLkmGQBwgqzSJ5ahu5qtSq/SeL48rfQ0Q5LnoKoC02VGiZWbwMEmSw3KAdFToCM99tVKYUl8eV/oaIHyRICAq7UX8HRdTJK2fHOBYpelz2DbUrwGiTWVSVjgQnwOwdTkOKMVDR7I3qQIQnm+gtRl7a5UMwoEIHCDlGi4erUQiH1kVgHArLoTA3z7deuarWNKFA6E5cJWmNO4AinhHBSDcEeiIFEShe00m9nhkSc3CgWUO2PGmFcfOMF0uWe9qHRB2Bxp/JVCuPwgo/HySHO05kPs3feDVhAB0LQ5EZVw97H5mJ6t3q64zUNy+OVAJuXi3IqSqfrl32BwgnYG+28dS6iMuJyiGLjdvVb61GUIn2KesxoGPPJ79Y9If1n23RjnJKhxwcYD8mGhcwfbwyJVvNa0cUHo1jXO9NkMY7Dtm97fklM7z2KUuuIo/+eMWfe/6WBz9ajBPsi5xYPFdhNFjjKv6Rx6nt37BrMQaIHDj8qppbQhbiW8o/vrt050zCSDQmIkHWfAaCOkYyzaNeUBbFTcujIKVLT/547ZpU+l1WfpgqF/BbK9pk7M+cCBTmNt9W13uB7yvK8d0OY/rfG2GyDOTYjJyFeSlwciHmKC//XG71yHQeX2RXKE4QB7V+ADtKfRPCjRwHKpe1NNqdiA6NgCClq5aAW2pj6hpiOpeQJx6gdkHUbrNR0R6lsBkS1za7wsCQbFTFMZBgJdtFb/8NrSqUuV71YCgqNpajcsZA56PsDQ2AlNeCzgCcrWHVdGXl7RtMp73QwIBfqNSSTs+tW2gGhBta+WXX4CDxKoiuPFRtuVr6+mPT4bkDMEBshsgfH6xaeZYmxSSQVwQlOnWyvwsXzc5rwYELV1BvHFXSF6H1tHq2J2Plwq2DcmmgTqfXalU0RJutv+DmQpAeDzsOlcBAJ2Hx89EIVxhz6yQB2q7xPigceYea3YfwHYtVwKClq7WLHar7UCswsYWp9bhStNOQR5iV8t7r6GQk9iGuIcZQEj30FPaNHyuBtMYYQy9JB14BhKBBthAJQ9/T2LvCC8wrJvEOQgIiTYIa/T9jLfymW2K2YaajfOZnwAzobAz1Lh9U5AnYhRguLpnJmSqT1PzU7bRcvGpXlr25lcjk85HSaJ/wSIIDfxxvVqa5y6AUHwQZOkx6d++GtsuuVL9lTNE3vAMv+4pKs+Y+zG9xOXL3BGLZgwwMfahxxCzSGlTEPEgZt2mtxWmV7ifYAbDZiszAgo6eSnW8/VngYGGLbMgqpYGPn1xhjf/kHITX8FfOqP/4h/4GlMl6cf3K/tag8YOxlLWPQcgaAnL9VaoTstRfZatMHS/+yge3RB0D/EMx5BmLVDI8k5gwYE+AST5Jurkt0WuKiQi7qMIZuNr4aVW7Di6uj0vBj7xZGngdzT0bbv0n32BFdv03q+O7WXpp2fpPNxf0jmLlhI3AsJuWu5Rjmgq2+Tlmg+wx2jrsZ010uRemP0BStTXP8Wbxr71xhYr0E/Ib4v0pRwwVKMFDZ0UwKHzYrah8+LoKmRnIcIU7dIvvdUB+GM6Lwa6va/0EL0a0jnNmvaHOot/xdsep9s+7P4gFBH+/elk4iPGpHpI9DsP5mcLzjqQuBEQGDY/fYXzqWziy1fMGvRgI+9J5iOFk25BQxlJHCseRDHblCsogah8Oz9v8saqnnWLN3m5ESsmFi2VxBrfuCnX0eU5zQTFsnr9PQP1TTwND7n2swVPHn/yZkCQOGHfoK5K5vYN5cpRTstnkzPco7/H5NBFcXTswOtQTkTbHRzVg7uDhnvUhJng2X42yWDSSiTVKcaZG+p1P1vYxKSNgGC5gacab1N1saly3/1c5JhQPlLwKEiajQuFQAbo/pDuy7FTHJhCD5/QzrFhbUd2nDkZkY1XZxZW4kZAIGFKyqjrwIrEL670Omn5KtAZytCfBcj1puHdLvtR+3J4OTCDGINdY+HmA0NuZH0KM4T7wHi9dOfgpTrnIcjIHsHt2hbBa65drsIwhOnzZtdr4+0o3/nSpcFvPQemXS1jZ99J2H1KnEwMYYOgBjbOEFnr1j1jnJ2v/982Stp6je47uRw6LeciUYtmEmXFNyhfmbw5LueRczYH7MCn1bXC2EmSwqaVRHat8TMujYk2zXkA4a66D3J+/qa6BKUXZWozoGRGp2x5cgGWEfIdl/Me0jmt9mAFEQsmCf3+VNb/ZzCLLPI0Z3GaLlb6NlfSLtJGuV43IBhu4CTGtFpBKFMT8LwElElVtYXRSimslGWLA8hWgIZK7NYqUTHQifLFYKeL/BvjHXnTE8VLR2ZjWbq1fkHjNNDhBIQ1RimnmkFGrZ18266AeGl2WeXtNXiylLJRbCmvNneWrhteLA3och3527y4tauDvKCf85vris6sNE6dGWokOgFBfkCFtXNTnTQ4kDbZlL4P91fAQ12a7EO/dqEPpKe6X8mYy2mcBjrIa2HjQT4+GxPzhMJ9wJdP0oUDTTjA0VM545TbthMQFW/G9XoDiQnrFcudQ+cALYxweMAap5yKkMcJCKqDlDX6lUM40DUHYBge+toMPT69gKAlOjdRu7Ua4+6LpPaJA7l+6iTJPz6dxdcS/YBgBI/F1Ha8VrPcEA605ABHPyUjYstmlop7AcEJHpu7gS9VLBfCgfYcILdv98EZn+4allO9gMgsmcuF1q/quYGvl5c7woEKDlg3nIr75VsBIm0sVVe+qD5nRDJYWHqra5C7woFmHODop4zxWaNx7wzB8XEJ6QZeg3bJKhxQnPFZh01eQHAq8+1tzalD8ggHyhywbt/lG9XnXsNxdbHNd52uG9fF+uUGfk3Xbpwtu6jnNEP2DftV2W7wgk8l6aU+p432wY1X6eEBgiIaOCJwcMzrqw0fwrV1CkwNRT0/sQ+3/HzziIS0ucyNRD/fgW8Oun1kpJeW+VXROjlBVtxudYspMvkjGtDDb0XJnhWm0DsJ9kjzhd6hPdQAmL+YIsKecWlzdzh6qf2eY3MVjVJYgOBENEBFmOLkIA7Qxva0Q2sNbhzDq/iLgOKaYxy9lDMur2vknbEAwYlowDGz80ja7Vw0qGE9fd2oFyY9F6t/xjnO58mccVn3ObAAAUXj0lcxx8zuq2Mf0o1J68wMq122+zKv3jzEa45einE5Dc0bFiDyzzHdbYsbuLKzA8ND08VI0ikOfZbg6qMxFiJYgMgfYHA0ugbGLqZRFMIQdNMuPCHq2dU6MCgZ+miTUKF+jtQAhO+7VY6Z3U/QLufIvv8N0IMDd4XZpj7KBgTHzfbQp3oGFGbI451pYaJ4SMu2jPr2MgtLHw0YaaPMRDYgOG624gZeZm3lOYkCo8qU0k1SKGnZFhtR/kXAOLgXDUMfDRlpo8R6/yeki8x5fJ/FdeXJYbuBh7acFsCwhrtPt18eHDAqx1h2M2SkjXIz7BmiXGjj+YHLvrQh5EbetEs4hhsDuYBgxrj9GsAYtquu76X9+ijHFNCkl2xAcNxsOeb2JkTuSpmBGlyA1llEeo+x38IzAgZ8oD5wlycj0hO8au4syDIFNKCODYi8bufD5pjbG9C4M0VoXRwrTa+6IJjsFeQrhf2898rlg6mHTmPxuCYg3O62HHN7rI70pd73D76/wZ4JNFN0dEC8gB9UoYB31Gi0ZmiDRX/lPhOAv4ZNOXju33lpG3NU3MA38XJx/yjRj68QTs7n6booEOCkUMABjBd4RB+PkuRNDEtuAFKdVXA2WOSYAJyNOBJrzRAcd9t9lGsd/KtMooH47sHXU4hPz5HBKWbaQFs6uQsR6DHythYFCBiFAk56xq4p4Bw9lGMCqHwwjJu1Zgi7r7NnI0Yg7JjR7kFkIfEJA/LseufVdFh0nN5ytBfbyiblZ9YF3MxfYHoZF3kb/h5n31qYR9AzJkoPXnEWRhq2FaxYpocC1q6DZQJwVbA5rRYgOBsxHkI08M3sXE/JxZYzpNCf98gH7SQgMNCm1TPGEKewNa55Rath/RWn8KWc94hn76olMgE93imdZXb3dlgyEDDe3f9+90gnv8JqfRaCIyROkQW85/YMv4SBPjyJZKj0zE3rj6FvGzGuU7ifd0gX+AffZ0MMOkEP/YOGywZaEUv02z6IU6R/2s9umbST/gV+PK+/EfzmBpoA4geqG22ustudSTfTsZ8pZLi6StNnUJyfoofBgGGVe2Pe3kgGZ9sSpzIx0b/j6NqTBaixskeBGi7X0mreqCUyZXX71oBbK4M1u3BY2Wmwvnvw7SW2of03rUzZgRyABSROQdF/vVUrOG2w2OTArAm6f9C37E2Kl8vUnyEgu9GyXrmS1XPIvf/e1ltmlZZDuH5yfusEG3lgxgj+MpoCdG+7UsJJL/CNLf/zNJMjPXjcdLaoPUNw3G6Z5nd/3yQHiwMkQ5MCjs3W7oZSwPOGR4US3onvFMPt288QPabZwr4k/JnXctQGBM/tNt6y2FoP5MaCA6QYv3/w9TGtTGmt3iBhtkhsd2JtGpnv1O0f8b7R0KF0IoT10ecE4rrdrg0I1gZ3B+4GXvchhM5P4sLvp9+eZ0u25nkoPSOnM+asMQrJC4h7MEre/kELEdx6a+sQVLFv6ZWmbXpTcYmQfPE5EFHPyPYhbLlCRcvKpNBH4sQshTjJ2Zyx9gxBBPveOIfuBh7pobaqttAzSoa+UOIU9GBVrFD9/eTTnfMm8jv0zqG/g2bC8Q+rqOcY4t4Xjp9dI0DAye+yotHFLXEDX7CidyckThV6Bg0u38utdgfIcAj5HVLE3/R1H2cQUhsst28E3Sb/MAJ1Axd7FigaAcL37TC9MWozUgp0ygFaFqfB9f7+t1/hpn7aYID56LVf95EiTt9q5K4Ww02FrNv3psTF/SzoNtFO3sSW7noLBxYULp2iESDEDXzxhPbixIpTGGDZm1e9QqeCiVPEIPuCzL8JJyWXDGikM1Da9eHfYHE1uDHR3WC2OIau8uW63eUz0Fr/yBQ0fe4sCSWmD/4xTholcSMHaGkV328/jGDsK7c5hdj2Ee4iF1dm/sHblmNMEcjI0l6u3Hlu1Cuy+K/maTRDKOXf6G6b0ddWOynX9Tnw++n3s8LbNrBNo0zMqHAX8YIBpeBtfVkuXD4n8Q8rSf/BPd7sBl+wKtGpESDEDbz8KPb7vLBpkO9UJF2DzUCixZWZllUhQhEopq58eRoirc8freZrBAhSalYrWrsOYoZfq1VubJEDZV0jygqVo2+0GsZZsSLQABR3Kb+jOpuEme/eap5GOgRVQuFP3NOcuIGvMnsfr2mQ6tQ8hVX4BP077qCPeBkj+gvFdsWnpCRGVc0cRBfj24qZnflKRDcHBAwwmEKJCRsPNNa4/o2VSkJvOWAXW9LkoW9cxOnAanh86xc18rW1OkYbiUxZI/6NGKuUFh+Bkr67HCiJVPZbjQi2DQdzyPW9/Of6iG1RDWab5QMzTrOD3MA1rTA7jtwNfOLIIkl7yIFcxzxD187opUhRR0ya3NvOzOFgsNGT1dTGgLBu4AiQ4z7EDdzNn/1P7TM4dJJ+Xn0CjQFBygxmAPeRuYFfuDNJ6qFwYBUctHUYzRzkpr0FHkzJ1rLabmMdokqzX62cE4VttYxcHwYHCBykc9xI9Kst9JjcwR9XtdsYEFSZb61X3MCrWC73yhzguX2XS7Q8pwgd8Jbd9G1EY5GJyMrcwPWQzqsOcQOv4orcK3OAXHzgvlG+tXZOriMDlbyFiDVSVgyHI6A2Q2T0LqsuKiviT92fTBb3Kk7aAYLikxo1rqjX3kI3h5vS5L5wgDiAlcpjHycouPGbB9Zt4xJ5l3RSWsXKVzOvq8nD2dhYxGpwWcfJtBUgbBRmN7gVWQw3TU/XPZCzw+UAuX1D+HYdyeZ9SXJFfbJSfPV6JXnzZSsdgkznm6vOUtCA9w3gq0PS95gDOmWMD793dSgOtQMEgwpxA2cw6aCz+IOr1RF52rKyFSA4hHJkxLadkPJ7zYFZl71rBYicUDfB4gbe5fPcqbZscGMvxZv1B2/RBhkCAKJbghv0UYr0lgN+1x5fQIvQXWsPCIQGcRPllxHd5SV1bznAiPDICWgRkj/tAaHEDTzkAzmkujiuPauRNmLzpzUgOASvGU5i90rq3wkOcFx7sn0Nu+tOa0DwCPbLit11WVrqCwc4rj2wHE+7pLc1IEDwpZdghqzorUMy7B0HOK49uSW6s763BoS4gXf2rPaqIU4EDbh0TLrudGtA5AQ7pzWOrNh1x6W97XIAA+94uxRUtx4IEO6NGDmyYjV5cndfOcBy6aFQMx0fYQDhIZwjK3bcb2luyxzguPRw9jMM3Y0wgGBQxZMZGRVJlv3gAMOlh7efYVh2hAGEuIGHfSoHUZv/wyDWCmZgXgUBBGcjRpbMGLhzUl2vOTDyUcdZwfTVUTc9CCA4X8RxZMa6xEv+3eQAM6Kjc+UyVs+DACInbuYkkiEzOstL4t5wgOfK4165jMWMgIAQN/BYD2nf6uVssIhIHLs9Q/j91sUNfN8GdtP+cDZYtAEsmjbQolywGYLjt86UHVt0R4ruAgc4bt+cABYx+hoMEMoRKqQgnCc7Frnld185wHHl4axcxuBPOEAwNmLkyI4xOil19o0D2rvkylm5jNGrYIDg+K1zZMcYnZQ6e8eBYw9F7hVLT+E2ycEAwfFbZ8mObXojZXvPAZ4Lz/ZWLIMBInsSbv91juzY+ycqBLbiAAacb3ZQ/hXLViQ4CwcGhLMtJPplR18Nkr7jHMgDEbt6wVmxdJVvkxYWEB43cBDqfTu06YyU7T8HdKL+5aWSsWLpraNhhqCA4Piv82TIhr2RYr3nADZ8H/mJ7C648SotQQHB8V9HgzJLrD6Fg7pmuX1Pt8WSoIBgGVMYMuS2mCHtdsIB7wzBWbGMRWlQQGzLmBKLOVJvWA7AdWfor9G9Uukv3y5HUEAQKb6NGLE32J12JEvpXeUAXHeGXtq9sYK9NbTKEBwQ2UaMLpr8MqSrtKTtLgd4rjv+WMExORAeEH4/dq8MGbPDUvf2OMBx3eHECo7Zg+CA4Pixixt4zEfa57ppg0X3wYsV7K6jTWpwQIgbeJvHsedlGRssbiPSRpnr4QEhbuBl/sr5Egf8rjvbiLRRJjE4IDgbMXJkyTKRcr43HPAZZbdmkCs4HBwQRcWuX3EDd3FnP9OYGyzOtt37SIBwG1fEDXzbj30b7TM2zfE7h0YnPA4gvMYVvywZvefSQLcc2JFNc+IAwr8Ro0+W7PZhSWvROcBz+04m0QnxNBAFEBzjiriBe57MniVz3L5ZzqGR+RIFEBzjChqWWSLyw+1T9ZxNc/rgHBoFECzjiriB92m8RqfFt2mO1yk0OoVZA1EAsW3jSke8k2aYHOC4ffudQpmNtcwWBRA5TW4ji7iBt3x0u1Oc4/a9reDGq1yMCAhfOHNxA199GPt6zdksh+MU2gV/ogGCgfhRFx2UNrbPAdZmOVuMtFHmUDRAcBAvbuDlR7HP5363b8VwCu2CQ9EAwQlnLtHAu3jEPWiD4fbNcQrtoifxAMGgnvdJIaMiydJzDng3y5n1pQPRAMFBvLiB92UYxKODJxZvL7jxas+jAWK1ocprWXqtZMs+3bxKzYdd6k9kQLjdwBH8ePzbpzs7xbBderjbpJVmBvtstTnx0cFYkfRVESw9KiCMUZ99lGptHj3549YXjjXTV5ek94MD5Lh5ZdIv9Gw5FCEm8FdOvi7ywMUk3kGDHIz5i9nCDFHO3r578O0lM79k6xkHaFaYq/QFXoTPuKSRD9P7+99+5eaPnS8qIIj4J59uv1RaveB2hBiUaPNqoAYX24zxyaVX8ilFQLhK02d4zk/Bj+M6PMEs8vj30+9ndcrEzBsdEET8kz9u/8DPqGZHZlqrs4FK3oqzYE3OdZSdvpM2qXnIFY3WyDL64t2Dr6dr97d4oxNA2DdIJjrVentc88VMAI6PMmtcc2RbZyQG/5POT5TWTzF4hi3omB7p5G7fpIBOAEFMI0VLm/S8JRMRTVlf6CT9DHBMZOZoMRxrFC1AgNWghyhWd6avaqmXYCBCOwMENZbNFPNzWm6l6wDHFDPHxKjkM8cQGKC9g6mCxCGt0ntQkMfodAgQWN4Zo89uJPp532aG4sF2Coii0bqKdlHO/wu7B4UygefkUTaDzPxlJId9UdGgp68YrbE02AurzNwZvqt+9f7B9zflm3073wogiAkkQiVm/jrgbLHGW1qx0kZPIWf9Sc6GtLl8X99Ma8RHukHiz5WaY/BTKCB902gzai3G+miFmHuUzQqXvqzbTt8aIIqOPzm/dYJp9HX0h1I0qBRmDQNRS0+tizqAQtEe+vCB+zWJ7c+ySHkIDoaBT5ESs+BwUd78DmIxY+vBq10SZ7cOiIKb/z2/9QjyKpS2rh9aQYH9tWBRNtBavnGH/XAl2xWzLw/Wzq52vT8b8FkP8M2BdbO2QeCOl3rV+cXuAaFgUW8AURDUem27qCj+7xQzDQCUH2UQFffa/K45PvZhoDs7tBd2o94BomA5KXpzNT8xaXIPit5JcV9+e8YB6AcqST++O/1+0TPKGpHTW0CUeyPgKHNj6+dYLdIXSZJ+3UdD6U4AYnUIkCKOD9fvhF4jX21HrhccOBh7z04CYvGYcJKtoc9hRCKAmNGWlfIyaTt8Tq4yWIWDW/ah2XN2HhBVoy5TzLHWrpKb21lurKKql/dmxRI02WrmajDdt+XnulzfS0BUMSEzSKkhWWNL6/IATT135aq6d+CeHfjGJJcIGfkzN1Jeii/Y+pM7GECsd/36TmbEwnURgHmx5Nn7pc7rTqjsc91rgyN9uD+Y9cV2UiK016cCCObjWYCG8hfAKcouAFTcoF99jP9oBqpzYBCXbBtFydJWU7T3RrHdAEVZl7d8wST5FQ4IB4QDwgHhgHBAOCAcEA4IB4QD3XPg/wHRDguETVckvgAAAABJRU5ErkJggg==;" vertex="1" parent="1">
          <mxGeometry x="150.77999999999997" y="215" width="38.43" height="40" as="geometry" />
        </mxCell>
        <mxCell id="aSwbKpvJS9M24WGZRWCX-13" value="DEPLOY" style="rounded=1;whiteSpace=wrap;html=1;" vertex="1" parent="1">
          <mxGeometry x="830" y="155" width="80" height="40" as="geometry" />
        </mxCell>
        <mxCell id="aSwbKpvJS9M24WGZRWCX-22" style="edgeStyle=orthogonalEdgeStyle;rounded=0;orthogonalLoop=1;jettySize=auto;html=1;" edge="1" parent="1" source="aSwbKpvJS9M24WGZRWCX-14" target="aSwbKpvJS9M24WGZRWCX-16">
          <mxGeometry relative="1" as="geometry" />
        </mxCell>
        <mxCell id="aSwbKpvJS9M24WGZRWCX-14" value="BUILD" style="rounded=1;whiteSpace=wrap;html=1;" vertex="1" parent="1">
          <mxGeometry x="550" y="155" width="80" height="40" as="geometry" />
        </mxCell>
        <mxCell id="aSwbKpvJS9M24WGZRWCX-23" style="edgeStyle=orthogonalEdgeStyle;rounded=0;orthogonalLoop=1;jettySize=auto;html=1;entryX=0;entryY=0.5;entryDx=0;entryDy=0;" edge="1" parent="1" source="aSwbKpvJS9M24WGZRWCX-16" target="aSwbKpvJS9M24WGZRWCX-13">
          <mxGeometry relative="1" as="geometry" />
        </mxCell>
        <mxCell id="aSwbKpvJS9M24WGZRWCX-16" value="UPLOAD CDN" style="rounded=1;whiteSpace=wrap;html=1;" vertex="1" parent="1">
          <mxGeometry x="689.21" y="155" width="90.79" height="40" as="geometry" />
        </mxCell>
        <mxCell id="aSwbKpvJS9M24WGZRWCX-19" value="S3 DEV" style="shape=image;verticalLabelPosition=bottom;labelBackgroundColor=default;verticalAlign=top;aspect=fixed;imageAspect=0;image=data:image/png,iVBORw0KGgoAAAANSUhEUgAAAMQAAADMCAYAAAAs9QwGAAAAAXNSR0IArs4c6QAAAERlWElmTU0AKgAAAAgAAYdpAAQAAAABAAAAGgAAAAAAA6ABAAMAAAABAAEAAKACAAQAAAABAAAAxKADAAQAAAABAAAAzAAAAAD7w/MEAAAfJElEQVR4Ae1dX5rTuLKXnOb59FnBZFZAzgKAsAK6YQHA6x3OB6wAWAHwDdxXmgUw3ayAAAsgs4JpVjC5z9Ox7q9kO+0kjlS2JcdJyh9NbOtfqayfVaUql5SSQzggHBAOCAeEA8IB4YBwQDggHBAO8Dmg+VkPN+ez8/HxlVKjjAPzY5Xq/Fwpnah/GWMW1wWXjNJDMHdYXPN+zWQtn0lmSpk/i/tGmZlOBlO6TpWa/e/pxJ4X6fLbjgMHDwgM9iEGOwbvfGhSDOKlAa7H7djbXWmj1KVW5lKVAZQkE6Lg3enE/tK5HG4OHAQgije8SeejJNG/0Bu92Rvczcyep9JMMzUmIeD8VImZpmpwKTPM8lPbO0A8OR+PywMfQs0IXT5e7rZcrXBgqoy+tKIZZpUjzDZvTie4PrxjpwHxP+fjkU7nY6WSm1pbOZ4GvxxhOGBnFADlq8pAMgVIcG+/j50BRCH2qDQdK23u4M0/3u9H07/ekZ4CgEySJP06UIPJPs4ivQYEiT8ZANQ9DA95+/cMIysAudiHGaRXgKAVn7maQwdI7mEWOOnZ8xdy/ByALqI+p0lysavK+tYBQSD4J52faK0fgt+7OgtAtjZT13hB/6YmVf9X5MEq1y9ap8Piuvp3p8XCmTH6Qifp53en3y+q+9e/u1sBRP9BkBnIFkuU9NywTKnUAANfqW2twtAiQpKvmBV2E6IH+tRNpdNj/OKvly+VHBz6Y99tIp0BgpRiiEMneGs87cFDw+A2M7uCQuNpzwxYxOvMsp5Z1QtjYx9sL6R3aKM+HiXJWR+V8uiAyJZGzVMsi55g6NEbrMujtL4uhqiC8bRYsZhhsGK3PaBgJtbqbZ9EqmiAeHJ+6wQKFmaDzuRgWGE13vzpn+Tr0/epuRicffldzCq0rA0RzMCug8Ex7IK+bLXKvL2RDGjWmHXR5qY2ggPiv+e3HqVGv4jPTLxdDsxotOkhxrpPut6VmgMY+o4xaox2RrHayuuFGKveQpx6sy1gBANEfCBcA0De/pGH5Ybqs1lkDnErOkC2BozWgLDGM5O+Bg+Dvj1oGk20uoC789c+yZgbxspB3iaA0EJJmiZ3IumIM9T7/PfT72ddMbgxIIgZ/6TmNQh+FJBYKMG7bdgJyIudq4r0Rpo9UqPwq4bhOmAmqR4878LY1wgQmcKsP6DDx207XVKoyPR/2bY+Kd8PDkRZXTTq1bsH317G7GEtQAScFayhxiT6bReoj8lAqdvPAfsCTZOHYdxxzORID05jKd1sQAAMwyuTnqP7bXSFKUSst13KhP7HJTm64oAdQ2n6yGj1EANv2KLdWaqTuzFepixAWJcBk35BBxqJSLAPnOmk/2b7Fg9IitbkAK1KYin3YRs7FV6uj0O/XL2AaAMGAsKNRL8S3aDmaDmg7Nkq5fxFU2CEBoUTEE3BIEA4oBEdqKutgAHxKZRtaiMgSIGGzkBiUg2dgXxTBq9CEReI11LNDnEgE6U02bXqiOezI538J4QkAm/i6mOuUkxjbDBg1cg8f3f/ezCkVlMld/edA6QTYHD/qrV6U6OveHnPP9TIvzFr5QyRi0o/NpZaTpiiA7QMdrl8W66EA+04UNfeFUKfqJwhktTQ7OA9SFd4d/9bkKnK25hkODgOkMsOLa+i41NO58mplJPPlWdthsjtDX+5ClEageH9g6+PffkkXTjQlgO19NmWCvbaDEEf+Xs7gG9lBQxeLkmGQBwgqzSJ5ahu5qtSq/SeL48rfQ0Q5LnoKoC02VGiZWbwMEmSw3KAdFToCM99tVKYUl8eV/oaIHyRICAq7UX8HRdTJK2fHOBYpelz2DbUrwGiTWVSVjgQnwOwdTkOKMVDR7I3qQIQnm+gtRl7a5UMwoEIHCDlGi4erUQiH1kVgHArLoTA3z7deuarWNKFA6E5cJWmNO4AinhHBSDcEeiIFEShe00m9nhkSc3CgWUO2PGmFcfOMF0uWe9qHRB2Bxp/JVCuPwgo/HySHO05kPs3feDVhAB0LQ5EZVw97H5mJ6t3q64zUNy+OVAJuXi3IqSqfrl32BwgnYG+28dS6iMuJyiGLjdvVb61GUIn2KesxoGPPJ79Y9If1n23RjnJKhxwcYD8mGhcwfbwyJVvNa0cUHo1jXO9NkMY7Dtm97fklM7z2KUuuIo/+eMWfe/6WBz9ajBPsi5xYPFdhNFjjKv6Rx6nt37BrMQaIHDj8qppbQhbiW8o/vrt050zCSDQmIkHWfAaCOkYyzaNeUBbFTcujIKVLT/547ZpU+l1WfpgqF/BbK9pk7M+cCBTmNt9W13uB7yvK8d0OY/rfG2GyDOTYjJyFeSlwciHmKC//XG71yHQeX2RXKE4QB7V+ADtKfRPCjRwHKpe1NNqdiA6NgCClq5aAW2pj6hpiOpeQJx6gdkHUbrNR0R6lsBkS1za7wsCQbFTFMZBgJdtFb/8NrSqUuV71YCgqNpajcsZA56PsDQ2AlNeCzgCcrWHVdGXl7RtMp73QwIBfqNSSTs+tW2gGhBta+WXX4CDxKoiuPFRtuVr6+mPT4bkDMEBshsgfH6xaeZYmxSSQVwQlOnWyvwsXzc5rwYELV1BvHFXSF6H1tHq2J2Plwq2DcmmgTqfXalU0RJutv+DmQpAeDzsOlcBAJ2Hx89EIVxhz6yQB2q7xPigceYea3YfwHYtVwKClq7WLHar7UCswsYWp9bhStNOQR5iV8t7r6GQk9iGuIcZQEj30FPaNHyuBtMYYQy9JB14BhKBBthAJQ9/T2LvCC8wrJvEOQgIiTYIa/T9jLfymW2K2YaajfOZnwAzobAz1Lh9U5AnYhRguLpnJmSqT1PzU7bRcvGpXlr25lcjk85HSaJ/wSIIDfxxvVqa5y6AUHwQZOkx6d++GtsuuVL9lTNE3vAMv+4pKs+Y+zG9xOXL3BGLZgwwMfahxxCzSGlTEPEgZt2mtxWmV7ifYAbDZiszAgo6eSnW8/VngYGGLbMgqpYGPn1xhjf/kHITX8FfOqP/4h/4GlMl6cf3K/tag8YOxlLWPQcgaAnL9VaoTstRfZatMHS/+yge3RB0D/EMx5BmLVDI8k5gwYE+AST5Jurkt0WuKiQi7qMIZuNr4aVW7Di6uj0vBj7xZGngdzT0bbv0n32BFdv03q+O7WXpp2fpPNxf0jmLlhI3AsJuWu5Rjmgq2+Tlmg+wx2jrsZ010uRemP0BStTXP8Wbxr71xhYr0E/Ib4v0pRwwVKMFDZ0UwKHzYrah8+LoKmRnIcIU7dIvvdUB+GM6Lwa6va/0EL0a0jnNmvaHOot/xdsep9s+7P4gFBH+/elk4iPGpHpI9DsP5mcLzjqQuBEQGDY/fYXzqWziy1fMGvRgI+9J5iOFk25BQxlJHCseRDHblCsogah8Oz9v8saqnnWLN3m5ESsmFi2VxBrfuCnX0eU5zQTFsnr9PQP1TTwND7n2swVPHn/yZkCQOGHfoK5K5vYN5cpRTstnkzPco7/H5NBFcXTswOtQTkTbHRzVg7uDhnvUhJng2X42yWDSSiTVKcaZG+p1P1vYxKSNgGC5gacab1N1saly3/1c5JhQPlLwKEiajQuFQAbo/pDuy7FTHJhCD5/QzrFhbUd2nDkZkY1XZxZW4kZAIGFKyqjrwIrEL670Omn5KtAZytCfBcj1puHdLvtR+3J4OTCDGINdY+HmA0NuZH0KM4T7wHi9dOfgpTrnIcjIHsHt2hbBa65drsIwhOnzZtdr4+0o3/nSpcFvPQemXS1jZ99J2H1KnEwMYYOgBjbOEFnr1j1jnJ2v/982Stp6je47uRw6LeciUYtmEmXFNyhfmbw5LueRczYH7MCn1bXC2EmSwqaVRHat8TMujYk2zXkA4a66D3J+/qa6BKUXZWozoGRGp2x5cgGWEfIdl/Me0jmt9mAFEQsmCf3+VNb/ZzCLLPI0Z3GaLlb6NlfSLtJGuV43IBhu4CTGtFpBKFMT8LwElElVtYXRSimslGWLA8hWgIZK7NYqUTHQifLFYKeL/BvjHXnTE8VLR2ZjWbq1fkHjNNDhBIQ1RimnmkFGrZ18266AeGl2WeXtNXiylLJRbCmvNneWrhteLA3och3527y4tauDvKCf85vris6sNE6dGWokOgFBfkCFtXNTnTQ4kDbZlL4P91fAQ12a7EO/dqEPpKe6X8mYy2mcBjrIa2HjQT4+GxPzhMJ9wJdP0oUDTTjA0VM545TbthMQFW/G9XoDiQnrFcudQ+cALYxweMAap5yKkMcJCKqDlDX6lUM40DUHYBge+toMPT69gKAlOjdRu7Ua4+6LpPaJA7l+6iTJPz6dxdcS/YBgBI/F1Ha8VrPcEA605ABHPyUjYstmlop7AcEJHpu7gS9VLBfCgfYcILdv98EZn+4allO9gMgsmcuF1q/quYGvl5c7woEKDlg3nIr75VsBIm0sVVe+qD5nRDJYWHqra5C7woFmHODop4zxWaNx7wzB8XEJ6QZeg3bJKhxQnPFZh01eQHAq8+1tzalD8ggHyhywbt/lG9XnXsNxdbHNd52uG9fF+uUGfk3Xbpwtu6jnNEP2DftV2W7wgk8l6aU+p432wY1X6eEBgiIaOCJwcMzrqw0fwrV1CkwNRT0/sQ+3/HzziIS0ucyNRD/fgW8Oun1kpJeW+VXROjlBVtxudYspMvkjGtDDb0XJnhWm0DsJ9kjzhd6hPdQAmL+YIsKecWlzdzh6qf2eY3MVjVJYgOBENEBFmOLkIA7Qxva0Q2sNbhzDq/iLgOKaYxy9lDMur2vknbEAwYlowDGz80ja7Vw0qGE9fd2oFyY9F6t/xjnO58mccVn3ObAAAUXj0lcxx8zuq2Mf0o1J68wMq122+zKv3jzEa45einE5Dc0bFiDyzzHdbYsbuLKzA8ND08VI0ikOfZbg6qMxFiJYgMgfYHA0ugbGLqZRFMIQdNMuPCHq2dU6MCgZ+miTUKF+jtQAhO+7VY6Z3U/QLufIvv8N0IMDd4XZpj7KBgTHzfbQp3oGFGbI451pYaJ4SMu2jPr2MgtLHw0YaaPMRDYgOG624gZeZm3lOYkCo8qU0k1SKGnZFhtR/kXAOLgXDUMfDRlpo8R6/yeki8x5fJ/FdeXJYbuBh7acFsCwhrtPt18eHDAqx1h2M2SkjXIz7BmiXGjj+YHLvrQh5EbetEs4hhsDuYBgxrj9GsAYtquu76X9+ijHFNCkl2xAcNxsOeb2JkTuSpmBGlyA1llEeo+x38IzAgZ8oD5wlycj0hO8au4syDIFNKCODYi8bufD5pjbG9C4M0VoXRwrTa+6IJjsFeQrhf2898rlg6mHTmPxuCYg3O62HHN7rI70pd73D76/wZ4JNFN0dEC8gB9UoYB31Gi0ZmiDRX/lPhOAv4ZNOXju33lpG3NU3MA38XJx/yjRj68QTs7n6booEOCkUMABjBd4RB+PkuRNDEtuAFKdVXA2WOSYAJyNOBJrzRAcd9t9lGsd/KtMooH47sHXU4hPz5HBKWbaQFs6uQsR6DHythYFCBiFAk56xq4p4Bw9lGMCqHwwjJu1Zgi7r7NnI0Yg7JjR7kFkIfEJA/LseufVdFh0nN5ytBfbyiblZ9YF3MxfYHoZF3kb/h5n31qYR9AzJkoPXnEWRhq2FaxYpocC1q6DZQJwVbA5rRYgOBsxHkI08M3sXE/JxZYzpNCf98gH7SQgMNCm1TPGEKewNa55Rath/RWn8KWc94hn76olMgE93imdZXb3dlgyEDDe3f9+90gnv8JqfRaCIyROkQW85/YMv4SBPjyJZKj0zE3rj6FvGzGuU7ifd0gX+AffZ0MMOkEP/YOGywZaEUv02z6IU6R/2s9umbST/gV+PK+/EfzmBpoA4geqG22ustudSTfTsZ8pZLi6StNnUJyfoofBgGGVe2Pe3kgGZ9sSpzIx0b/j6NqTBaixskeBGi7X0mreqCUyZXX71oBbK4M1u3BY2Wmwvnvw7SW2of03rUzZgRyABSROQdF/vVUrOG2w2OTArAm6f9C37E2Kl8vUnyEgu9GyXrmS1XPIvf/e1ltmlZZDuH5yfusEG3lgxgj+MpoCdG+7UsJJL/CNLf/zNJMjPXjcdLaoPUNw3G6Z5nd/3yQHiwMkQ5MCjs3W7oZSwPOGR4US3onvFMPt288QPabZwr4k/JnXctQGBM/tNt6y2FoP5MaCA6QYv3/w9TGtTGmt3iBhtkhsd2JtGpnv1O0f8b7R0KF0IoT10ecE4rrdrg0I1gZ3B+4GXvchhM5P4sLvp9+eZ0u25nkoPSOnM+asMQrJC4h7MEre/kELEdx6a+sQVLFv6ZWmbXpTcYmQfPE5EFHPyPYhbLlCRcvKpNBH4sQshTjJ2Zyx9gxBBPveOIfuBh7pobaqttAzSoa+UOIU9GBVrFD9/eTTnfMm8jv0zqG/g2bC8Q+rqOcY4t4Xjp9dI0DAye+yotHFLXEDX7CidyckThV6Bg0u38utdgfIcAj5HVLE3/R1H2cQUhsst28E3Sb/MAJ1Axd7FigaAcL37TC9MWozUgp0ygFaFqfB9f7+t1/hpn7aYID56LVf95EiTt9q5K4Ww02FrNv3psTF/SzoNtFO3sSW7noLBxYULp2iESDEDXzxhPbixIpTGGDZm1e9QqeCiVPEIPuCzL8JJyWXDGikM1Da9eHfYHE1uDHR3WC2OIau8uW63eUz0Fr/yBQ0fe4sCSWmD/4xTholcSMHaGkV328/jGDsK7c5hdj2Ee4iF1dm/sHblmNMEcjI0l6u3Hlu1Cuy+K/maTRDKOXf6G6b0ddWOynX9Tnw++n3s8LbNrBNo0zMqHAX8YIBpeBtfVkuXD4n8Q8rSf/BPd7sBl+wKtGpESDEDbz8KPb7vLBpkO9UJF2DzUCixZWZllUhQhEopq58eRoirc8freZrBAhSalYrWrsOYoZfq1VubJEDZV0jygqVo2+0GsZZsSLQABR3Kb+jOpuEme/eap5GOgRVQuFP3NOcuIGvMnsfr2mQ6tQ8hVX4BP077qCPeBkj+gvFdsWnpCRGVc0cRBfj24qZnflKRDcHBAwwmEKJCRsPNNa4/o2VSkJvOWAXW9LkoW9cxOnAanh86xc18rW1OkYbiUxZI/6NGKuUFh+Bkr67HCiJVPZbjQi2DQdzyPW9/Of6iG1RDWab5QMzTrOD3MA1rTA7jtwNfOLIIkl7yIFcxzxD187opUhRR0ya3NvOzOFgsNGT1dTGgLBu4AiQ4z7EDdzNn/1P7TM4dJJ+Xn0CjQFBygxmAPeRuYFfuDNJ6qFwYBUctHUYzRzkpr0FHkzJ1rLabmMdokqzX62cE4VttYxcHwYHCBykc9xI9Kst9JjcwR9XtdsYEFSZb61X3MCrWC73yhzguX2XS7Q8pwgd8Jbd9G1EY5GJyMrcwPWQzqsOcQOv4orcK3OAXHzgvlG+tXZOriMDlbyFiDVSVgyHI6A2Q2T0LqsuKiviT92fTBb3Kk7aAYLikxo1rqjX3kI3h5vS5L5wgDiAlcpjHycouPGbB9Zt4xJ5l3RSWsXKVzOvq8nD2dhYxGpwWcfJtBUgbBRmN7gVWQw3TU/XPZCzw+UAuX1D+HYdyeZ9SXJFfbJSfPV6JXnzZSsdgkznm6vOUtCA9w3gq0PS95gDOmWMD793dSgOtQMEgwpxA2cw6aCz+IOr1RF52rKyFSA4hHJkxLadkPJ7zYFZl71rBYicUDfB4gbe5fPcqbZscGMvxZv1B2/RBhkCAKJbghv0UYr0lgN+1x5fQIvQXWsPCIQGcRPllxHd5SV1bznAiPDICWgRkj/tAaHEDTzkAzmkujiuPauRNmLzpzUgOASvGU5i90rq3wkOcFx7sn0Nu+tOa0DwCPbLit11WVrqCwc4rj2wHE+7pLc1IEDwpZdghqzorUMy7B0HOK49uSW6s763BoS4gXf2rPaqIU4EDbh0TLrudGtA5AQ7pzWOrNh1x6W97XIAA+94uxRUtx4IEO6NGDmyYjV5cndfOcBy6aFQMx0fYQDhIZwjK3bcb2luyxzguPRw9jMM3Y0wgGBQxZMZGRVJlv3gAMOlh7efYVh2hAGEuIGHfSoHUZv/wyDWCmZgXgUBBGcjRpbMGLhzUl2vOTDyUcdZwfTVUTc9CCA4X8RxZMa6xEv+3eQAM6Kjc+UyVs+DACInbuYkkiEzOstL4t5wgOfK4165jMWMgIAQN/BYD2nf6uVssIhIHLs9Q/j91sUNfN8GdtP+cDZYtAEsmjbQolywGYLjt86UHVt0R4ruAgc4bt+cABYx+hoMEMoRKqQgnCc7Frnld185wHHl4axcxuBPOEAwNmLkyI4xOil19o0D2rvkylm5jNGrYIDg+K1zZMcYnZQ6e8eBYw9F7hVLT+E2ycEAwfFbZ8mObXojZXvPAZ4Lz/ZWLIMBInsSbv91juzY+ycqBLbiAAacb3ZQ/hXLViQ4CwcGhLMtJPplR18Nkr7jHMgDEbt6wVmxdJVvkxYWEB43cBDqfTu06YyU7T8HdKL+5aWSsWLpraNhhqCA4Piv82TIhr2RYr3nADZ8H/mJ7C648SotQQHB8V9HgzJLrD6Fg7pmuX1Pt8WSoIBgGVMYMuS2mCHtdsIB7wzBWbGMRWlQQGzLmBKLOVJvWA7AdWfor9G9Uukv3y5HUEAQKb6NGLE32J12JEvpXeUAXHeGXtq9sYK9NbTKEBwQ2UaMLpr8MqSrtKTtLgd4rjv+WMExORAeEH4/dq8MGbPDUvf2OMBx3eHECo7Zg+CA4Pixixt4zEfa57ppg0X3wYsV7K6jTWpwQIgbeJvHsedlGRssbiPSRpnr4QEhbuBl/sr5Egf8rjvbiLRRJjE4IDgbMXJkyTKRcr43HPAZZbdmkCs4HBwQRcWuX3EDd3FnP9OYGyzOtt37SIBwG1fEDXzbj30b7TM2zfE7h0YnPA4gvMYVvywZvefSQLcc2JFNc+IAwr8Ro0+W7PZhSWvROcBz+04m0QnxNBAFEBzjiriBe57MniVz3L5ZzqGR+RIFEBzjChqWWSLyw+1T9ZxNc/rgHBoFECzjiriB92m8RqfFt2mO1yk0OoVZA1EAsW3jSke8k2aYHOC4ffudQpmNtcwWBRA5TW4ji7iBt3x0u1Oc4/a9reDGq1yMCAhfOHNxA199GPt6zdksh+MU2gV/ogGCgfhRFx2UNrbPAdZmOVuMtFHmUDRAcBAvbuDlR7HP5363b8VwCu2CQ9EAwQlnLtHAu3jEPWiD4fbNcQrtoifxAMGgnvdJIaMiydJzDng3y5n1pQPRAMFBvLiB92UYxKODJxZvL7jxas+jAWK1ocprWXqtZMs+3bxKzYdd6k9kQLjdwBH8ePzbpzs7xbBderjbpJVmBvtstTnx0cFYkfRVESw9KiCMUZ99lGptHj3549YXjjXTV5ek94MD5Lh5ZdIv9Gw5FCEm8FdOvi7ywMUk3kGDHIz5i9nCDFHO3r578O0lM79k6xkHaFaYq/QFXoTPuKSRD9P7+99+5eaPnS8qIIj4J59uv1RaveB2hBiUaPNqoAYX24zxyaVX8ilFQLhK02d4zk/Bj+M6PMEs8vj30+9ndcrEzBsdEET8kz9u/8DPqGZHZlqrs4FK3oqzYE3OdZSdvpM2qXnIFY3WyDL64t2Dr6dr97d4oxNA2DdIJjrVentc88VMAI6PMmtcc2RbZyQG/5POT5TWTzF4hi3omB7p5G7fpIBOAEFMI0VLm/S8JRMRTVlf6CT9DHBMZOZoMRxrFC1AgNWghyhWd6avaqmXYCBCOwMENZbNFPNzWm6l6wDHFDPHxKjkM8cQGKC9g6mCxCGt0ntQkMfodAgQWN4Zo89uJPp532aG4sF2Coii0bqKdlHO/wu7B4UygefkUTaDzPxlJId9UdGgp68YrbE02AurzNwZvqt+9f7B9zflm3073wogiAkkQiVm/jrgbLHGW1qx0kZPIWf9Sc6GtLl8X99Ma8RHukHiz5WaY/BTKCB902gzai3G+miFmHuUzQqXvqzbTt8aIIqOPzm/dYJp9HX0h1I0qBRmDQNRS0+tizqAQtEe+vCB+zWJ7c+ySHkIDoaBT5ESs+BwUd78DmIxY+vBq10SZ7cOiIKb/z2/9QjyKpS2rh9aQYH9tWBRNtBavnGH/XAl2xWzLw/Wzq52vT8b8FkP8M2BdbO2QeCOl3rV+cXuAaFgUW8AURDUem27qCj+7xQzDQCUH2UQFffa/K45PvZhoDs7tBd2o94BomA5KXpzNT8xaXIPit5JcV9+e8YB6AcqST++O/1+0TPKGpHTW0CUeyPgKHNj6+dYLdIXSZJ+3UdD6U4AYnUIkCKOD9fvhF4jX21HrhccOBh7z04CYvGYcJKtoc9hRCKAmNGWlfIyaTt8Tq4yWIWDW/ah2XN2HhBVoy5TzLHWrpKb21lurKKql/dmxRI02WrmajDdt+XnulzfS0BUMSEzSKkhWWNL6/IATT135aq6d+CeHfjGJJcIGfkzN1Jeii/Y+pM7GECsd/36TmbEwnURgHmx5Nn7pc7rTqjsc91rgyN9uD+Y9cV2UiK016cCCObjWYCG8hfAKcouAFTcoF99jP9oBqpzYBCXbBtFydJWU7T3RrHdAEVZl7d8wST5FQ4IB4QDwgHhgHBAOCAcEA4IB4QD3XPg/wHRDguETVckvgAAAABJRU5ErkJggg==;" vertex="1" parent="1">
          <mxGeometry x="670" y="235" width="38.43" height="40" as="geometry" />
        </mxCell>
        <mxCell id="aSwbKpvJS9M24WGZRWCX-21" value="Dockerfile" style="text;html=1;whiteSpace=wrap;strokeColor=none;fillColor=none;align=center;verticalAlign=middle;rounded=0;" vertex="1" parent="1">
          <mxGeometry x="90.78" y="300" width="60" height="30" as="geometry" />
        </mxCell>
        <mxCell id="aSwbKpvJS9M24WGZRWCX-24" value="S3 Production" style="shape=image;verticalLabelPosition=bottom;labelBackgroundColor=default;verticalAlign=top;aspect=fixed;imageAspect=0;image=data:image/png,iVBORw0KGgoAAAANSUhEUgAAAMQAAADMCAYAAAAs9QwGAAAAAXNSR0IArs4c6QAAAERlWElmTU0AKgAAAAgAAYdpAAQAAAABAAAAGgAAAAAAA6ABAAMAAAABAAEAAKACAAQAAAABAAAAxKADAAQAAAABAAAAzAAAAAD7w/MEAAAfJElEQVR4Ae1dX5rTuLKXnOb59FnBZFZAzgKAsAK6YQHA6x3OB6wAWAHwDdxXmgUw3ayAAAsgs4JpVjC5z9Ox7q9kO+0kjlS2JcdJyh9NbOtfqayfVaUql5SSQzggHBAOCAeEA8IB4YBwQDggHBAO8Dmg+VkPN+ez8/HxlVKjjAPzY5Xq/Fwpnah/GWMW1wWXjNJDMHdYXPN+zWQtn0lmSpk/i/tGmZlOBlO6TpWa/e/pxJ4X6fLbjgMHDwgM9iEGOwbvfGhSDOKlAa7H7djbXWmj1KVW5lKVAZQkE6Lg3enE/tK5HG4OHAQgije8SeejJNG/0Bu92Rvczcyep9JMMzUmIeD8VImZpmpwKTPM8lPbO0A8OR+PywMfQs0IXT5e7rZcrXBgqoy+tKIZZpUjzDZvTie4PrxjpwHxP+fjkU7nY6WSm1pbOZ4GvxxhOGBnFADlq8pAMgVIcG+/j50BRCH2qDQdK23u4M0/3u9H07/ekZ4CgEySJP06UIPJPs4ivQYEiT8ZANQ9DA95+/cMIysAudiHGaRXgKAVn7maQwdI7mEWOOnZ8xdy/ByALqI+p0lysavK+tYBQSD4J52faK0fgt+7OgtAtjZT13hB/6YmVf9X5MEq1y9ap8Piuvp3p8XCmTH6Qifp53en3y+q+9e/u1sBRP9BkBnIFkuU9NywTKnUAANfqW2twtAiQpKvmBV2E6IH+tRNpdNj/OKvly+VHBz6Y99tIp0BgpRiiEMneGs87cFDw+A2M7uCQuNpzwxYxOvMsp5Z1QtjYx9sL6R3aKM+HiXJWR+V8uiAyJZGzVMsi55g6NEbrMujtL4uhqiC8bRYsZhhsGK3PaBgJtbqbZ9EqmiAeHJ+6wQKFmaDzuRgWGE13vzpn+Tr0/epuRicffldzCq0rA0RzMCug8Ex7IK+bLXKvL2RDGjWmHXR5qY2ggPiv+e3HqVGv4jPTLxdDsxotOkhxrpPut6VmgMY+o4xaox2RrHayuuFGKveQpx6sy1gBANEfCBcA0De/pGH5Ybqs1lkDnErOkC2BozWgLDGM5O+Bg+Dvj1oGk20uoC789c+yZgbxspB3iaA0EJJmiZ3IumIM9T7/PfT72ddMbgxIIgZ/6TmNQh+FJBYKMG7bdgJyIudq4r0Rpo9UqPwq4bhOmAmqR4878LY1wgQmcKsP6DDx207XVKoyPR/2bY+Kd8PDkRZXTTq1bsH317G7GEtQAScFayhxiT6bReoj8lAqdvPAfsCTZOHYdxxzORID05jKd1sQAAMwyuTnqP7bXSFKUSst13KhP7HJTm64oAdQ2n6yGj1EANv2KLdWaqTuzFepixAWJcBk35BBxqJSLAPnOmk/2b7Fg9IitbkAK1KYin3YRs7FV6uj0O/XL2AaAMGAsKNRL8S3aDmaDmg7Nkq5fxFU2CEBoUTEE3BIEA4oBEdqKutgAHxKZRtaiMgSIGGzkBiUg2dgXxTBq9CEReI11LNDnEgE6U02bXqiOezI538J4QkAm/i6mOuUkxjbDBg1cg8f3f/ezCkVlMld/edA6QTYHD/qrV6U6OveHnPP9TIvzFr5QyRi0o/NpZaTpiiA7QMdrl8W66EA+04UNfeFUKfqJwhktTQ7OA9SFd4d/9bkKnK25hkODgOkMsOLa+i41NO58mplJPPlWdthsjtDX+5ClEageH9g6+PffkkXTjQlgO19NmWCvbaDEEf+Xs7gG9lBQxeLkmGQBwgqzSJ5ahu5qtSq/SeL48rfQ0Q5LnoKoC02VGiZWbwMEmSw3KAdFToCM99tVKYUl8eV/oaIHyRICAq7UX8HRdTJK2fHOBYpelz2DbUrwGiTWVSVjgQnwOwdTkOKMVDR7I3qQIQnm+gtRl7a5UMwoEIHCDlGi4erUQiH1kVgHArLoTA3z7deuarWNKFA6E5cJWmNO4AinhHBSDcEeiIFEShe00m9nhkSc3CgWUO2PGmFcfOMF0uWe9qHRB2Bxp/JVCuPwgo/HySHO05kPs3feDVhAB0LQ5EZVw97H5mJ6t3q64zUNy+OVAJuXi3IqSqfrl32BwgnYG+28dS6iMuJyiGLjdvVb61GUIn2KesxoGPPJ79Y9If1n23RjnJKhxwcYD8mGhcwfbwyJVvNa0cUHo1jXO9NkMY7Dtm97fklM7z2KUuuIo/+eMWfe/6WBz9ajBPsi5xYPFdhNFjjKv6Rx6nt37BrMQaIHDj8qppbQhbiW8o/vrt050zCSDQmIkHWfAaCOkYyzaNeUBbFTcujIKVLT/547ZpU+l1WfpgqF/BbK9pk7M+cCBTmNt9W13uB7yvK8d0OY/rfG2GyDOTYjJyFeSlwciHmKC//XG71yHQeX2RXKE4QB7V+ADtKfRPCjRwHKpe1NNqdiA6NgCClq5aAW2pj6hpiOpeQJx6gdkHUbrNR0R6lsBkS1za7wsCQbFTFMZBgJdtFb/8NrSqUuV71YCgqNpajcsZA56PsDQ2AlNeCzgCcrWHVdGXl7RtMp73QwIBfqNSSTs+tW2gGhBta+WXX4CDxKoiuPFRtuVr6+mPT4bkDMEBshsgfH6xaeZYmxSSQVwQlOnWyvwsXzc5rwYELV1BvHFXSF6H1tHq2J2Plwq2DcmmgTqfXalU0RJutv+DmQpAeDzsOlcBAJ2Hx89EIVxhz6yQB2q7xPigceYea3YfwHYtVwKClq7WLHar7UCswsYWp9bhStNOQR5iV8t7r6GQk9iGuIcZQEj30FPaNHyuBtMYYQy9JB14BhKBBthAJQ9/T2LvCC8wrJvEOQgIiTYIa/T9jLfymW2K2YaajfOZnwAzobAz1Lh9U5AnYhRguLpnJmSqT1PzU7bRcvGpXlr25lcjk85HSaJ/wSIIDfxxvVqa5y6AUHwQZOkx6d++GtsuuVL9lTNE3vAMv+4pKs+Y+zG9xOXL3BGLZgwwMfahxxCzSGlTEPEgZt2mtxWmV7ifYAbDZiszAgo6eSnW8/VngYGGLbMgqpYGPn1xhjf/kHITX8FfOqP/4h/4GlMl6cf3K/tag8YOxlLWPQcgaAnL9VaoTstRfZatMHS/+yge3RB0D/EMx5BmLVDI8k5gwYE+AST5Jurkt0WuKiQi7qMIZuNr4aVW7Di6uj0vBj7xZGngdzT0bbv0n32BFdv03q+O7WXpp2fpPNxf0jmLlhI3AsJuWu5Rjmgq2+Tlmg+wx2jrsZ010uRemP0BStTXP8Wbxr71xhYr0E/Ib4v0pRwwVKMFDZ0UwKHzYrah8+LoKmRnIcIU7dIvvdUB+GM6Lwa6va/0EL0a0jnNmvaHOot/xdsep9s+7P4gFBH+/elk4iPGpHpI9DsP5mcLzjqQuBEQGDY/fYXzqWziy1fMGvRgI+9J5iOFk25BQxlJHCseRDHblCsogah8Oz9v8saqnnWLN3m5ESsmFi2VxBrfuCnX0eU5zQTFsnr9PQP1TTwND7n2swVPHn/yZkCQOGHfoK5K5vYN5cpRTstnkzPco7/H5NBFcXTswOtQTkTbHRzVg7uDhnvUhJng2X42yWDSSiTVKcaZG+p1P1vYxKSNgGC5gacab1N1saly3/1c5JhQPlLwKEiajQuFQAbo/pDuy7FTHJhCD5/QzrFhbUd2nDkZkY1XZxZW4kZAIGFKyqjrwIrEL670Omn5KtAZytCfBcj1puHdLvtR+3J4OTCDGINdY+HmA0NuZH0KM4T7wHi9dOfgpTrnIcjIHsHt2hbBa65drsIwhOnzZtdr4+0o3/nSpcFvPQemXS1jZ99J2H1KnEwMYYOgBjbOEFnr1j1jnJ2v/982Stp6je47uRw6LeciUYtmEmXFNyhfmbw5LueRczYH7MCn1bXC2EmSwqaVRHat8TMujYk2zXkA4a66D3J+/qa6BKUXZWozoGRGp2x5cgGWEfIdl/Me0jmt9mAFEQsmCf3+VNb/ZzCLLPI0Z3GaLlb6NlfSLtJGuV43IBhu4CTGtFpBKFMT8LwElElVtYXRSimslGWLA8hWgIZK7NYqUTHQifLFYKeL/BvjHXnTE8VLR2ZjWbq1fkHjNNDhBIQ1RimnmkFGrZ18266AeGl2WeXtNXiylLJRbCmvNneWrhteLA3och3527y4tauDvKCf85vris6sNE6dGWokOgFBfkCFtXNTnTQ4kDbZlL4P91fAQ12a7EO/dqEPpKe6X8mYy2mcBjrIa2HjQT4+GxPzhMJ9wJdP0oUDTTjA0VM545TbthMQFW/G9XoDiQnrFcudQ+cALYxweMAap5yKkMcJCKqDlDX6lUM40DUHYBge+toMPT69gKAlOjdRu7Ua4+6LpPaJA7l+6iTJPz6dxdcS/YBgBI/F1Ha8VrPcEA605ABHPyUjYstmlop7AcEJHpu7gS9VLBfCgfYcILdv98EZn+4allO9gMgsmcuF1q/quYGvl5c7woEKDlg3nIr75VsBIm0sVVe+qD5nRDJYWHqra5C7woFmHODop4zxWaNx7wzB8XEJ6QZeg3bJKhxQnPFZh01eQHAq8+1tzalD8ggHyhywbt/lG9XnXsNxdbHNd52uG9fF+uUGfk3Xbpwtu6jnNEP2DftV2W7wgk8l6aU+p432wY1X6eEBgiIaOCJwcMzrqw0fwrV1CkwNRT0/sQ+3/HzziIS0ucyNRD/fgW8Oun1kpJeW+VXROjlBVtxudYspMvkjGtDDb0XJnhWm0DsJ9kjzhd6hPdQAmL+YIsKecWlzdzh6qf2eY3MVjVJYgOBENEBFmOLkIA7Qxva0Q2sNbhzDq/iLgOKaYxy9lDMur2vknbEAwYlowDGz80ja7Vw0qGE9fd2oFyY9F6t/xjnO58mccVn3ObAAAUXj0lcxx8zuq2Mf0o1J68wMq122+zKv3jzEa45einE5Dc0bFiDyzzHdbYsbuLKzA8ND08VI0ikOfZbg6qMxFiJYgMgfYHA0ugbGLqZRFMIQdNMuPCHq2dU6MCgZ+miTUKF+jtQAhO+7VY6Z3U/QLufIvv8N0IMDd4XZpj7KBgTHzfbQp3oGFGbI451pYaJ4SMu2jPr2MgtLHw0YaaPMRDYgOG624gZeZm3lOYkCo8qU0k1SKGnZFhtR/kXAOLgXDUMfDRlpo8R6/yeki8x5fJ/FdeXJYbuBh7acFsCwhrtPt18eHDAqx1h2M2SkjXIz7BmiXGjj+YHLvrQh5EbetEs4hhsDuYBgxrj9GsAYtquu76X9+ijHFNCkl2xAcNxsOeb2JkTuSpmBGlyA1llEeo+x38IzAgZ8oD5wlycj0hO8au4syDIFNKCODYi8bufD5pjbG9C4M0VoXRwrTa+6IJjsFeQrhf2898rlg6mHTmPxuCYg3O62HHN7rI70pd73D76/wZ4JNFN0dEC8gB9UoYB31Gi0ZmiDRX/lPhOAv4ZNOXju33lpG3NU3MA38XJx/yjRj68QTs7n6booEOCkUMABjBd4RB+PkuRNDEtuAFKdVXA2WOSYAJyNOBJrzRAcd9t9lGsd/KtMooH47sHXU4hPz5HBKWbaQFs6uQsR6DHythYFCBiFAk56xq4p4Bw9lGMCqHwwjJu1Zgi7r7NnI0Yg7JjR7kFkIfEJA/LseufVdFh0nN5ytBfbyiblZ9YF3MxfYHoZF3kb/h5n31qYR9AzJkoPXnEWRhq2FaxYpocC1q6DZQJwVbA5rRYgOBsxHkI08M3sXE/JxZYzpNCf98gH7SQgMNCm1TPGEKewNa55Rath/RWn8KWc94hn76olMgE93imdZXb3dlgyEDDe3f9+90gnv8JqfRaCIyROkQW85/YMv4SBPjyJZKj0zE3rj6FvGzGuU7ifd0gX+AffZ0MMOkEP/YOGywZaEUv02z6IU6R/2s9umbST/gV+PK+/EfzmBpoA4geqG22ustudSTfTsZ8pZLi6StNnUJyfoofBgGGVe2Pe3kgGZ9sSpzIx0b/j6NqTBaixskeBGi7X0mreqCUyZXX71oBbK4M1u3BY2Wmwvnvw7SW2of03rUzZgRyABSROQdF/vVUrOG2w2OTArAm6f9C37E2Kl8vUnyEgu9GyXrmS1XPIvf/e1ltmlZZDuH5yfusEG3lgxgj+MpoCdG+7UsJJL/CNLf/zNJMjPXjcdLaoPUNw3G6Z5nd/3yQHiwMkQ5MCjs3W7oZSwPOGR4US3onvFMPt288QPabZwr4k/JnXctQGBM/tNt6y2FoP5MaCA6QYv3/w9TGtTGmt3iBhtkhsd2JtGpnv1O0f8b7R0KF0IoT10ecE4rrdrg0I1gZ3B+4GXvchhM5P4sLvp9+eZ0u25nkoPSOnM+asMQrJC4h7MEre/kELEdx6a+sQVLFv6ZWmbXpTcYmQfPE5EFHPyPYhbLlCRcvKpNBH4sQshTjJ2Zyx9gxBBPveOIfuBh7pobaqttAzSoa+UOIU9GBVrFD9/eTTnfMm8jv0zqG/g2bC8Q+rqOcY4t4Xjp9dI0DAye+yotHFLXEDX7CidyckThV6Bg0u38utdgfIcAj5HVLE3/R1H2cQUhsst28E3Sb/MAJ1Axd7FigaAcL37TC9MWozUgp0ygFaFqfB9f7+t1/hpn7aYID56LVf95EiTt9q5K4Ww02FrNv3psTF/SzoNtFO3sSW7noLBxYULp2iESDEDXzxhPbixIpTGGDZm1e9QqeCiVPEIPuCzL8JJyWXDGikM1Da9eHfYHE1uDHR3WC2OIau8uW63eUz0Fr/yBQ0fe4sCSWmD/4xTholcSMHaGkV328/jGDsK7c5hdj2Ee4iF1dm/sHblmNMEcjI0l6u3Hlu1Cuy+K/maTRDKOXf6G6b0ddWOynX9Tnw++n3s8LbNrBNo0zMqHAX8YIBpeBtfVkuXD4n8Q8rSf/BPd7sBl+wKtGpESDEDbz8KPb7vLBpkO9UJF2DzUCixZWZllUhQhEopq58eRoirc8freZrBAhSalYrWrsOYoZfq1VubJEDZV0jygqVo2+0GsZZsSLQABR3Kb+jOpuEme/eap5GOgRVQuFP3NOcuIGvMnsfr2mQ6tQ8hVX4BP077qCPeBkj+gvFdsWnpCRGVc0cRBfj24qZnflKRDcHBAwwmEKJCRsPNNa4/o2VSkJvOWAXW9LkoW9cxOnAanh86xc18rW1OkYbiUxZI/6NGKuUFh+Bkr67HCiJVPZbjQi2DQdzyPW9/Of6iG1RDWab5QMzTrOD3MA1rTA7jtwNfOLIIkl7yIFcxzxD187opUhRR0ya3NvOzOFgsNGT1dTGgLBu4AiQ4z7EDdzNn/1P7TM4dJJ+Xn0CjQFBygxmAPeRuYFfuDNJ6qFwYBUctHUYzRzkpr0FHkzJ1rLabmMdokqzX62cE4VttYxcHwYHCBykc9xI9Kst9JjcwR9XtdsYEFSZb61X3MCrWC73yhzguX2XS7Q8pwgd8Jbd9G1EY5GJyMrcwPWQzqsOcQOv4orcK3OAXHzgvlG+tXZOriMDlbyFiDVSVgyHI6A2Q2T0LqsuKiviT92fTBb3Kk7aAYLikxo1rqjX3kI3h5vS5L5wgDiAlcpjHycouPGbB9Zt4xJ5l3RSWsXKVzOvq8nD2dhYxGpwWcfJtBUgbBRmN7gVWQw3TU/XPZCzw+UAuX1D+HYdyeZ9SXJFfbJSfPV6JXnzZSsdgkznm6vOUtCA9w3gq0PS95gDOmWMD793dSgOtQMEgwpxA2cw6aCz+IOr1RF52rKyFSA4hHJkxLadkPJ7zYFZl71rBYicUDfB4gbe5fPcqbZscGMvxZv1B2/RBhkCAKJbghv0UYr0lgN+1x5fQIvQXWsPCIQGcRPllxHd5SV1bznAiPDICWgRkj/tAaHEDTzkAzmkujiuPauRNmLzpzUgOASvGU5i90rq3wkOcFx7sn0Nu+tOa0DwCPbLit11WVrqCwc4rj2wHE+7pLc1IEDwpZdghqzorUMy7B0HOK49uSW6s763BoS4gXf2rPaqIU4EDbh0TLrudGtA5AQ7pzWOrNh1x6W97XIAA+94uxRUtx4IEO6NGDmyYjV5cndfOcBy6aFQMx0fYQDhIZwjK3bcb2luyxzguPRw9jMM3Y0wgGBQxZMZGRVJlv3gAMOlh7efYVh2hAGEuIGHfSoHUZv/wyDWCmZgXgUBBGcjRpbMGLhzUl2vOTDyUcdZwfTVUTc9CCA4X8RxZMa6xEv+3eQAM6Kjc+UyVs+DACInbuYkkiEzOstL4t5wgOfK4165jMWMgIAQN/BYD2nf6uVssIhIHLs9Q/j91sUNfN8GdtP+cDZYtAEsmjbQolywGYLjt86UHVt0R4ruAgc4bt+cABYx+hoMEMoRKqQgnCc7Frnld185wHHl4axcxuBPOEAwNmLkyI4xOil19o0D2rvkylm5jNGrYIDg+K1zZMcYnZQ6e8eBYw9F7hVLT+E2ycEAwfFbZ8mObXojZXvPAZ4Lz/ZWLIMBInsSbv91juzY+ycqBLbiAAacb3ZQ/hXLViQ4CwcGhLMtJPplR18Nkr7jHMgDEbt6wVmxdJVvkxYWEB43cBDqfTu06YyU7T8HdKL+5aWSsWLpraNhhqCA4Piv82TIhr2RYr3nADZ8H/mJ7C648SotQQHB8V9HgzJLrD6Fg7pmuX1Pt8WSoIBgGVMYMuS2mCHtdsIB7wzBWbGMRWlQQGzLmBKLOVJvWA7AdWfor9G9Uukv3y5HUEAQKb6NGLE32J12JEvpXeUAXHeGXtq9sYK9NbTKEBwQ2UaMLpr8MqSrtKTtLgd4rjv+WMExORAeEH4/dq8MGbPDUvf2OMBx3eHECo7Zg+CA4Pixixt4zEfa57ppg0X3wYsV7K6jTWpwQIgbeJvHsedlGRssbiPSRpnr4QEhbuBl/sr5Egf8rjvbiLRRJjE4IDgbMXJkyTKRcr43HPAZZbdmkCs4HBwQRcWuX3EDd3FnP9OYGyzOtt37SIBwG1fEDXzbj30b7TM2zfE7h0YnPA4gvMYVvywZvefSQLcc2JFNc+IAwr8Ro0+W7PZhSWvROcBz+04m0QnxNBAFEBzjiriBe57MniVz3L5ZzqGR+RIFEBzjChqWWSLyw+1T9ZxNc/rgHBoFECzjiriB92m8RqfFt2mO1yk0OoVZA1EAsW3jSke8k2aYHOC4ffudQpmNtcwWBRA5TW4ji7iBt3x0u1Oc4/a9reDGq1yMCAhfOHNxA199GPt6zdksh+MU2gV/ogGCgfhRFx2UNrbPAdZmOVuMtFHmUDRAcBAvbuDlR7HP5363b8VwCu2CQ9EAwQlnLtHAu3jEPWiD4fbNcQrtoifxAMGgnvdJIaMiydJzDng3y5n1pQPRAMFBvLiB92UYxKODJxZvL7jxas+jAWK1ocprWXqtZMs+3bxKzYdd6k9kQLjdwBH8ePzbpzs7xbBderjbpJVmBvtstTnx0cFYkfRVESw9KiCMUZ99lGptHj3549YXjjXTV5ek94MD5Lh5ZdIv9Gw5FCEm8FdOvi7ywMUk3kGDHIz5i9nCDFHO3r578O0lM79k6xkHaFaYq/QFXoTPuKSRD9P7+99+5eaPnS8qIIj4J59uv1RaveB2hBiUaPNqoAYX24zxyaVX8ilFQLhK02d4zk/Bj+M6PMEs8vj30+9ndcrEzBsdEET8kz9u/8DPqGZHZlqrs4FK3oqzYE3OdZSdvpM2qXnIFY3WyDL64t2Dr6dr97d4oxNA2DdIJjrVentc88VMAI6PMmtcc2RbZyQG/5POT5TWTzF4hi3omB7p5G7fpIBOAEFMI0VLm/S8JRMRTVlf6CT9DHBMZOZoMRxrFC1AgNWghyhWd6avaqmXYCBCOwMENZbNFPNzWm6l6wDHFDPHxKjkM8cQGKC9g6mCxCGt0ntQkMfodAgQWN4Zo89uJPp532aG4sF2Coii0bqKdlHO/wu7B4UygefkUTaDzPxlJId9UdGgp68YrbE02AurzNwZvqt+9f7B9zflm3073wogiAkkQiVm/jrgbLHGW1qx0kZPIWf9Sc6GtLl8X99Ma8RHukHiz5WaY/BTKCB902gzai3G+miFmHuUzQqXvqzbTt8aIIqOPzm/dYJp9HX0h1I0qBRmDQNRS0+tizqAQtEe+vCB+zWJ7c+ySHkIDoaBT5ESs+BwUd78DmIxY+vBq10SZ7cOiIKb/z2/9QjyKpS2rh9aQYH9tWBRNtBavnGH/XAl2xWzLw/Wzq52vT8b8FkP8M2BdbO2QeCOl3rV+cXuAaFgUW8AURDUem27qCj+7xQzDQCUH2UQFffa/K45PvZhoDs7tBd2o94BomA5KXpzNT8xaXIPit5JcV9+e8YB6AcqST++O/1+0TPKGpHTW0CUeyPgKHNj6+dYLdIXSZJ+3UdD6U4AYnUIkCKOD9fvhF4jX21HrhccOBh7z04CYvGYcJKtoc9hRCKAmNGWlfIyaTt8Tq4yWIWDW/ah2XN2HhBVoy5TzLHWrpKb21lurKKql/dmxRI02WrmajDdt+XnulzfS0BUMSEzSKkhWWNL6/IATT135aq6d+CeHfjGJJcIGfkzN1Jeii/Y+pM7GECsd/36TmbEwnURgHmx5Nn7pc7rTqjsc91rgyN9uD+Y9cV2UiK016cCCObjWYCG8hfAKcouAFTcoF99jP9oBqpzYBCXbBtFydJWU7T3RrHdAEVZl7d8wST5FQ4IB4QDwgHhgHBAOCAcEA4IB4QD3XPg/wHRDguETVckvgAAAABJRU5ErkJggg==;" vertex="1" parent="1">
          <mxGeometry x="770" y="235" width="38.43" height="40" as="geometry" />
        </mxCell>
        <mxCell id="aSwbKpvJS9M24WGZRWCX-25" value="" style="endArrow=classic;html=1;rounded=0;exitX=0.5;exitY=1;exitDx=0;exitDy=0;entryX=0.5;entryY=0;entryDx=0;entryDy=0;" edge="1" parent="1" source="aSwbKpvJS9M24WGZRWCX-16" target="aSwbKpvJS9M24WGZRWCX-19">
          <mxGeometry width="50" height="50" relative="1" as="geometry">
            <mxPoint x="510" y="385" as="sourcePoint" />
            <mxPoint x="560" y="335" as="targetPoint" />
          </mxGeometry>
        </mxCell>
        <mxCell id="aSwbKpvJS9M24WGZRWCX-26" value="" style="endArrow=classic;html=1;rounded=0;exitX=0.5;exitY=1;exitDx=0;exitDy=0;entryX=0.5;entryY=0;entryDx=0;entryDy=0;" edge="1" parent="1" source="aSwbKpvJS9M24WGZRWCX-16" target="aSwbKpvJS9M24WGZRWCX-24">
          <mxGeometry width="50" height="50" relative="1" as="geometry">
            <mxPoint x="736" y="325" as="sourcePoint" />
            <mxPoint x="720" y="366" as="targetPoint" />
          </mxGeometry>
        </mxCell>
        <mxCell id="aSwbKpvJS9M24WGZRWCX-28" value="" style="shape=image;verticalLabelPosition=bottom;labelBackgroundColor=default;verticalAlign=top;aspect=fixed;imageAspect=0;image=data:image/png,iVBORw0KGgoAAAANSUhEUgAAALkAAAC5CAYAAAB0rZ5cAAAAAXNSR0IArs4c6QAAAERlWElmTU0AKgAAAAgAAYdpAAQAAAABAAAAGgAAAAAAA6ABAAMAAAABAAEAAKACAAQAAAABAAAAuaADAAQAAAABAAAAuQAAAAC8+/HaAAAtdElEQVR4Ae1dCXxU1dW/976ZyU4SdhJURARCcKsLEoIsrXWrpdYqfLi2tmpdClGLtZ+1abUuCISldHHporXFWttq/RRtFWQJoGIRCQkoGhCjZUsC2WZ5737/M5mhIcy8eTPvzcq7P4aZvHfX//2/886999xzGbODjYCNgI2AjYCNgI2AjYCNgI2AjYCNgI2AjYCNgI2AjYCNgI2AjYCNgI2AjYCNgI2AjYCNgI1AuiLA07Xiia63ZIxvGHF7gVc4+nOnVsI1MZRLNkzjcihjsoQz3h91KsanAJ98AJuNNC78VvAhnPEn0/Dx4uPGp4NxeZBL3iol+w9ufsa53I2YjZKJnVz4mpQutnfch0sOITGltUOMCNgkDwPcmlFzQFZ3ieRiJFhaDjKXAazhiD4EnO0L3uXitwvXujHkJqAEywMspi96CPAAsAO42IRcdzDJG6Rg9dwntmlc+bRy29xDiGMHgwiY6BmDJaRJtBXlt+RnqVknMq6dAaaNY0ycLpk2HBK6L0AiiQw6JwcuiYcAwYtHYT9n4iMm5UaQfoMi2LvOrI6dZ218rIMi2CE0AsnptdB1SfjVVSNuHyCc4nTB+RTwqAKSswwSlNQOXEpdaAKkV0H6vXjytoD0q5kQK7wu+f6UTQtbEg5kiheYuj0ZJ+Bqy6v6SpWdxbl2oWR8CooZiU9uKpM6EhQB0h9EZ9ajTf/kUn3Frfg2T6n7RVuktMfC/WOC5HXl1a4D6oFToHpcAjJfgkaXQwHIS2dihyNngPAtaN87kPAvCEUsH19XswNt9us84dJl8vWMJjlJbU2Vk9HI/4EaMgkdOSATiR2OoCC8xIPdCLVmueT8T96OwrenNFZ3hYufqdczkuRrRt1WwoVjGvTVqyHAzgSxszK1Aw21q3v2hnT1lSD9U8Lre/3cD5ccNJQ2AyJlFMnXn3r7UNWjXIl+uRaSeyzITXPUduiBAIR7J/SWtZgpetzh8S0/FsieESRfe+pdA5nPNx1LLTeA3KeC3BnRrh7ctPynlBrUFr4Kkv1X7BBbXrG7ptPyQlIkw7Qmw6un3pWX5/N9TUh2O6QTZkxsyR01r6RshzbzihR88YSthWs5q6ZV2YwKaUlyEJqvLZ81gWv8TujcF3IusjOqVxLdmG6dfS9n8g9S0ZZO2LJkR6KrEM/y0o7kq8pmD4GifStA+Tb0ykFp14B49qbJvAPTj3XAdX5WTvuzmbKSmjYc+TO7QikpO+4CzrR70Zfn2nq3SUbrJO/W19nfuRQPVjTUvK8TNS1upQXJ14+dNcinsdkA/SYMKcnSzw7xRqBbhdkBK8m5rI09nc4D05Qn+drRs8ejPx/ArMkUW3rHm9lH5++X6pwv03z8/onbaz46OkbqX0lZktNSfLPWfA2muH4Mch+XilAGdFiajaBVxE7U9SBWF8lepA2D43b83YXBnCdYdwhHB+670J4c3MvH7z74FOA3me3m4OOkuLhPXykTAu18F3X9QWX9on+mTMUMVsRhMF5Co60YeWf/Vq35h+h8qCd+AiS0/FCFBTqa5pJh+cd2gYaYgZAfYrn8Y6aKJsHlPk3RWp2qr71DkW7WPtBX0K9J/Whj8+EpuQGTy/nAvUx0Zjc5Dqm5LsXNcrhUCqRQi5kmBmK8cQIYfhKsTEYg75NA98H4LkR5SbWKpIcO7T9NMDEGD++/0HZ8pU9ILZEB3FaPvmOkYNqjUE++AnBFsqDsJrWkBZNP0KXvSS7fQl02SVXs8DndeybX/QKSOj6dTW+xQ7y52OcVxwmhjZFSnIldRF9A+aPw6Q9cEtpvfiwke0ZK13fTccNGQsGKRNiA/r0IXXg2JFqk6JbfD0jrgMkqexPb0N50OL2bO/v2+3zKymqf5QVGkSHtVJIO33BFleMk16Zg88Q4qA/Hg+9xN10ALm9hwW36+IaFjVFUOWWiJp5JYZq+puyOi/G6XoxOw2s6sQGdSHsu6/FcvcI0/qo7W76XypsPVkyudrj27T+BaY7zmCYvxlumEqrd4HgIeGDThBmWmZhKfDOxvWJdaUknOa1e1pZVTcdWsxrBBXTQxISA1IZ+LV+Hxvs8UxyrJmyetycxpVtXyjtn3uj0tOeN1pj8CjrzMqh5p4Hs3dv1TBYDjDqxubqqYuuiX5vMKqnJk0pyyapF7ZjW6zCqeRQd0y8RSBC5IfU+hvT7m1T5n7Lz29/Dyh5tHk77QAN2p0ObyqV2HWTHeVD5yGtATAE4aRBAv/R2Ft2V7jbosWIQE3A9E/Ug+DwQHLvf4xsCknsHynpGU7U/Vm5btC2+JSYvd0j3XE9XHqky3wFRz0ebyU2G4eDHSrI3nIrzqnPqHv3ccMIUjZgUknerKLOxoYHVxFuCB8j9Kcp6BrLpN5lM7t4cqx1alaMVcAxSVbL1mWrUkA0D2o80TbtyYsPijb3zTMe/k0LyNWOqruRS/hwEHxBP0EDwQ9BNnsdMxOLxWxdsQmPxfB17gdxtOKVrGtfYLOBBJslh+x2YYccQv2lCfc2yTEEqbGPj1UDsu7wQEvUJ4FwarzLQUfSyWIcOnVvEC18pr6s+vOoYrzLTIV/aFigU502a1G6EVB/cu/MBm4p2POwZVFSd7ClTK/Hs3U4r8z4qr9VjZo0Tkj8Ngp981E2LLuAB2sMF/5WDO36ZCfqkRbAckQ2tR2CZ7R6IgovQF92r3vgDkuHvniz2zVSePj2iIQb/SBjJIcFHgIDPANRzDNYtqmjd0putYYJVV9QtXIGGHZOqiVHQ3hl+d6Hb5abtgncCqxKA9T5XlSsrts9vMJpHusRLCMlpassl1CehCX41HiuZIDgZRD0BI5G559Uv/CxdwE+Feq4pn1WJvbF3wC/pE5X1C15OhTpZXYe4k/zlEbdnFTocc2F7cRukuOW2KCD4TpgP3efK7fxTpsx3W93JkfKjWZjxu2tgMZmZb7+4WyEWucT1IOJ3LCe4X4fktVj4+H5Fw+LaSB1p3w+PQDpviAjfqv/eiaskx1ThREwVLgPBS/5bpPlfeGhUVPx5+Ae/O12NhsyjYOdgFAHL1YdgweToBwR/JA4Ed8Nf91J3FrvJJngQbftbD4G4qCv+XT3elh9A2p6rV3i09yDBO/B5RLTxR6c0LMxYZzjR4pIu8TE5wFeePrswR1PzfW6peR3awUR43o2LurK2rGoGBoNPYCYlz6oOALkPYSb3/uzczoX2ANMqVBOTz4ph1dnOnINTYUp9GYzjzoBxXDGGuMT5/+DaBo2Lv2XntK+PV79aTvLAfPiLUFPKrIKQCA5wfuQeVLg0k1birMInlfMhtRUiuxqcno565oMXR1QXfUt/H8DnWSnkw5V1i3YdEcGCP44s0WSGNF1Y5HQsRYNu6N2YmLPudmN2n2dw0WKb4DGjmJSEtSOrSuGR6zFI7Isj8SFA9jexIHWz1QtSlg48C7OUS+mJjdQgo4ij4W7k93BWXscSm+BGUUuNeCTwpEPeZ4TgVGPiDCTuJOlQF9IxN1a2wjKSk/s2prI5qGy+FRUEwX1o9VJ+SMyPl65mRT3tPEIj0Mfp/CK07plRCTxSZSQ7XziUb5PCHjrn6K9aQnKqkMCCD6p1ZvRVODoFCA4Bzp71uNj9mb5QcXTr0/8KbcmDDfs1tDMp2tbgoYD7DXbN2lG3DYk2bbj4lpC8tnz2aXjZWLOq2T0QWeVziHsyzRouXCdk2vWurpwhIPg5JkTxcOFwnmoVLqZJTk8tDHxuxdM31JpKYf+lxu+atGXBJ9bkZ+eSaASEilOqJTOjV7tgsWom/RFNNr0YhJ3iFVBTLrdCg4KW0gZDrvuwRe2dI2pp/5FeCAi4vJMSLu9iluUq3gTYoWRNMCXJaZIfpLwFCz+mPc2C4BryeTwrp/NZa5pm55IsBMBQ+IPkZnZjebBVz7JDd02R3JXdeh4GnRfhqbMAT74e0ymP2jMpFkCZ5Cy4qpKqGfsuf4nFIYXR5nNLQswkp3lQvI2+jdFwVO4OQtUaUvwAnAtV2xseQqGTftcmbOtPBH+dJsliCZCZb7W4fZaNyWImeZHDAeMr+eVYGtEzDYCgA1WfbKpveqPndft3+iJAh2thJvBxtGBXtK0AHQ7Co9njF3+4hFz3WRJiIjn54oMUh+9wRm6FzQXJNnsVvuRK9hztFLdDhiBQsXXBv9GUeyHMm402CQQnT2ZLXNntrxtNYyReTCTP+ry1TGPaJWZ1cTTKDV97C+zpQiNdlX5xKuqLnsHbfhamEz9GX+s2APcPQk2Z5xGeh60el8U2hSjYN+DpdJBurQ3dlK9rWtbfDEW1I6UdAv4zQevZ07Vj7tiCKcVbQOQL0AjaJab0aEwr6P82xnY/d+W0v1wRB7+UUU+LvFX+/cFezfsaKnVKj4pG/RMNPoQF3Csr6mqWR53YTpB2CPhP7xtVMoIp4jShseGYenbiswf+Gt93K77N8dw8EbUk96m+qdDHR5tGWbJX3e2FK03nY2eQFgj4x1zbGDlZTbij1ah0ctrWBsupyyDFsZoVeyApjsWCx9PdJXDsCNgpE4lAVCRvVVtH0akGZiuIAcZKrImtNpuPnd5GwAgCUZEcagr26fGBRjIOF4fOhdQ09jvbhDYcQvZ1qxEwTHLysgQpTg4iDacJVVk8JO95s5m98BMKHPtaXBAwPvDMx9mSkn0B0jzmAF0cR3TI56dsWmSZ8U3MlbETHjMIGJbKWPyZBFTMnuvzmaLwl44ZdO2GpgQChkhOy/hQMyaZVVWw+rW6q3/RBynRcrsSxwwChtQV597mEhjNfMEMKlBVfDii+yV7170ZFFMzLS30DD+zWJy58TEftFn99XuDTSAr1z6KGIYh4AlQcfOFwjtgArJTtvDGaCctDJGcacpYxrRSM/o43gSfCE2uNdhGO1qKI0BuIxxOR6XGtXO4xke4O2Ru7ejZzWsYq4OToDf68uJ/x3KMDa3FHFBbLxBcfgsQ4MAGrS+448BoTsVZpc28QL4LD21PZ+W2vwgblw4jMBkiOQocB/uaLCMZhosDe/EN7sHFu1nGnWMQrsWZed2/PD+6dJrgbA4k7BmwYXLBPAONxYe+QBRcO9AsW16CV+O5lVtr6owiseL02UUtnpYfITvaFB/Yp0CZ+gOpzIPx62LMX0zt6sj9M5wX/bBie03EzRURdXL/KqfU6MSwQFnRf9GsCpdiha2qRI9dKqXoJnjJd0GFJ2GBOg6ccPXmBf2ND6Qvu5bcdvtPsjDQCNpK6eriP4GyMwvpdTfiQIXJpvw1RVuyYfStESdDIkryffzgIBiPjzJQT70ozVKRb+lFyKR71cOuz85Ru/o6pdLPp6pFXIHVneRu+FMn2+p9xzf5mtPRfr6k7LgL4KDzJyBhUaT+QhyKMhaeHJasHll1+cTtNR/ppXHmtlwOgpME72mhGDaJP3/JpnmZYxMOPn7Ab/EYJnZEkjt9EhZjjF4TZsJ2xa3qNtJM5qmQ9pH+Xy1wZOWeg50fU5m362x08YkqA8EFy+0eitEaAYM3ArZvV6mjfq6c8aZDKKuG7vZsTQfCkyoh3Nr3Iab7Ron36YrCbgYR4cq7WguVlvKGCLgFz0VOqPvhroHo0Gz49evHtjzHtrD6cPEikhyrnGOQONf/XIbLRe+631he/vvcD5dY5mJAr7hE33vo+JnFiqpNE4xfi4ERkfsoz62H68QZeZQigTEW8a5Qpdq0q1R5ba424zfDPlNrU5nsTreokEw9F6Q63BwjP0jiQl2dtnbUvoWwP2wKlcbZKc7gQjutW6kPFSP8NYwLjodDwYsQIyzJI+rkkD7lyCC6lvWoE9KTBHu3x6WM+Ik28fmlM77oVCVOfGa/BkJT0KHhCd6r1dT5+NDRgtdD2v9111Bl0bwhM0/oFS11/uTqRDQ5O8YKlTCHMjxcWiHkqcAhN9z9CNcVjHTP1oujS3KyV0FfjKAOMRHasFN5i4n0KZe0uuTS3HlDZ8zBu3dZgNyuWCsZIHt/vPBulVz7Cz04seYVr3RQNTDBJk4ywYMsqYqwvnkgjclbVswkwwOiO/OnS3Itz0snAph1//Z5wA9HvPogofnWDLu+KF/kzQUuP0Wn97eqcD/ZBT8LD85Tj5ZMn4GOi7nTrapTMJ+Vk3EEsJS6RArGDfOtwCNsnzD36I1mahM7VEXAFT7oklxyMQSdaconHUrf5XX3p5ME0j7Q4NLn7XwYUvcmdEzM0lsPCORbgl5fMq9kOp3MkBJh8spqFTQ304cqJpHDjsnAkUY0NOSg1AAAUPn5br14uiQXQhkKeRK1+93DBdKgU7IdmbADqJpNdojs3DshYOkUjYgD9sMYxPAD+fcH0efOHTIDenDyA14pWMtj74NNuhJTp6YdTGh7wt2HkxYas+0Pd1/vOuqG5X62Ui+OLsnRtuOROObXFCGCV0mjXgXS5V5eyaBL0NWz403wIB4o5zgMSB+aO+wKs9O3wSxNfWuCTDJ4rCbSu7O4a2e4CvRlfeqB7WuxPEN47Da4s+SKcHnTdX2J1K2PR3gQ9LJnKgadjbox0uDmI8fNKMEpGveCeIUJru545lVuxcDvx+HmmI3UhyYQ4AaqFDpDP0WTCneIZt6lfhrNtO4hj7apj5P/A2S8FjgYKdYfh6Q/4j9/dt2j/wmXiGxcVo/+Xg3WzCoQ58Rw8XpfR9YtmKCsibQ/QZ/AkpWiOcZb1LsWjOG0Rh62cUdHT80rQjKcmoANIwkOIAdZhXyrZugHNI0bdVgx8s7+tWNm3SQL5N+lKlcIyV/DOGu5qso3VKfjlTWjZ9+zbvTsYUYyJrdtQlUeQtxNRuJTnIBkXsV87DG0Q1fVmdiweCMMu+YgTZOR/BGvA7MyD+5uaHolUnxdkkMKD4JuGCkPvfudmHvapxch1e/5pbhkVxPhklTXEp/0XQeGRNURq8fMGucS6rOQo0tR9y/jcRmK7z74FAguBqNbK/B5EOe3v7B2TNU0I/nTqWyA4Vtg70qQTHegiPs+8Prl7tPcIhtREbYT6hb+hXPt2kD+IV0/I196eHbACKyqWBQvMrKApttxQDXaJdzePGjH6wTuJ9I3KFJOQe3N+5mJEQKQEuwWX5lbelWp0SyI4JDaT4HYU5E+rC0I5Y0Dek4Fax4H0a8wkj/5OBSKxBSn/AFk80YQ7iDSY7HXHzwwXtiDzxuw/b7Nk8Wviva4woqti19HpS7HM30d8n8SnK7VpNyMPN/G50WQ+x58X1LRUPOYUVNeXemwtmz2hwDiJCONDxUHza5nTsfkCZvnhR1Zh0qXKtfI6m5niUJkmZnMOgFHDxTbmXN2/+n5SPUIeDh7Dv0WnesQ+CsEqaaBPO9HKiN4nywAVabATYlyPAy3XEiPaUax0624P7bKI9aK8lvyc1WepXjyfay4uSMWP4m6A088rXnR2ioEAaBvpO1wtSmWueDtmXcifjcOYwO4l5+ZiLIilOHCcgcNyiKS3Kt6ZwJ4ihtVQF+fiKmw27DV8VajJtHjGpbStF9t4BNVeUYjBx4WnFwRe4igroiYpw+pSgCuc3++Ct0sPQP3KSegFUmfwiO1AlieUl1+hUsPyXeG312IMdTliK/br6HyoDJQyIWuffvR5swKumAAWl1QI0Ihmcd1MN/Ukm3EMuIYAe0nPTgvjkUYzhoUHJLf7Oijl6AzxzsMTB2lFyfCvSFMc2CrY2YFXZJjxK17PxIUmJ3ROh37kU26Br9tiq5Kl6iWgeT52Hih+8BhZ8YQ1Cf2FWrG4OPSvwCYqGYlpJyU6MCEtDTNC4GkcEmFmXuzGsAAg9xYzWkN5J6cKLqSGtJDdy7USJVzfP2QTXoGTFXR8R5pE7CiSdvrukxUWAMh0n7xrnf7dUkO6WGK5GC3M8vXmrYkB1hkeefpDVoy/gaIHizsdOqV7RR+E4rdenH07/FWTRNb9eOk311dkqM5ZjvYpeU501Yl0hRO7g50iZWoLsf4Zr/L6dSdShu3pXgvBNM/oXLEVi0u32rPUupjS5y6qSKR3Myrj1qdIxxeDGbSM3BFJan4SSrUHit9H5U2tuuuHpMRlxTid6jvrmjrjAcDDxD/5QWb57VHmzbV40eSsmYbnKf54Kg5TcOwRrZ3Zyn7Nwgw1j+PnKR2+CWzlG8bsdOorFuwed3oqp9hXn0+6mxopgX5w70b/2UhL4xo7NQbAlqRzFGUIulRHPBz1Vkgi5uNLrf3zqvn3+SHJSuvdSisP0vh0CMH3534/pQOsY32jE9dkqPhupKjZ6XC/M4TDmesG1TDZJm4y0SqeXz6q9CFp6PUuM9s6LSsFfYcq3TuH74F3V2+k9f+2672HFpm/xHWeAbqGdmRBCeCC6/vgfIPqw2pp7Tnc82Y5rOFFJdhm3oF/LdhNxPwUXlbi2z5AOYgy6Xme6Fy28+bDlfM4I/1I27voznF1+CiZrpU+amofzEsY3CIFmwZVXag0Km8Azub37V6fMuNkl1XXYE0iGm3Ro/2QJKziI5oesRPuZ+aQ3sdldqezIqBuKvbHdnvGa0D2XdMaFi0VEoxA2n+CiLvxYcCHgH0avenFYZP/8JKyDcLReG9Rm3LyQfiurLWh4XGX0Rmd+NtMREf2uR8HD5lsPP5Ksr8uRDOF1ePrrqUHgij9V43dnaZ6lCehqO5x7FoezFZTuIBzUO+5Kkrl/7G99fgmeuZQqdYQKbERvLWnflYO3r2H/AkXaUnCfQKAZgeycRllfULXtaLl+r3sLGYnOo8CIB133zxaEc3hvLqOZ8++1ws+ZN32CKXcwyofTqTWin4LYTANCGOFtRk9vuV2+YafluT8ZdH8/wCkv9rwEKXO1RX1H0/Vo3vGF+/6Gl6w+jVv7a8agTq9AfEGWeEb8ibHtmnHV719kgPqG6noR1N9NyjghEbFKYBTiGl2d3+YbJO3GXp0p7mHuVKoHBW4krtLgnAv6a5O5fHWm7glf5vpKdPzIEeFo/qrQYnDBGcCkLcfmDig2vGzNrGti7aEK5w/1E9qqwGvuRfMVy0I64jHp4fOROS/z2QvQapwj5EkV4lNIVmZq4cBsty2BG1S8M/5jQ+9zkwfACyozWR1Ud5TZAwD9y970XD0jZe9SvKckyht7qfXFEUAvKVQrW5nRzHhk3WR60AwacRb6MJiA83nezmdSPv1LXX0SU5dDaaPjM0GAlVOX+lJTuJ7LJD3U+na+1N//k/ALoQxEuIVSXK6SApeNfuZW8lGyd//2lyBvrT0GzNEfUlgcvlFw/ylrD7EqBBXYw00efdXdBwqfi+cUSZvf7QJTn23JEkN+TovFe+Pf7kJw04vbSgx4W0/FnNVvq0ro75kOjYrRJfoiN/jGXYgo5i9XG913CigBww8vhivM7PiLU86PD9YXBdFio9qUG4Xh6tFA/mhXQQoPzLwb9DfeuSHA/hZ0hkaoYFB2qVZnUog0MVnm7XSG1wOHN+AFx+TUSMR/1JguON8VCHM/tn1XXPxaWMaOvtcnkK8bD1izZdj/gOuCYJOROC/ZVZ0KaLe8SN5edIvUS6JG9XnBgdh/ZEqpdpz3t4ivuqQju557V0/l3V+LuWNq19Doh4Hwi5z6q2IC+ajfgED1BVe6H6YHXj78yuNltVNThhwyEPsU8+UD00xrV4tkdXGOiS/Mub52HbP/vQJFoumJXH/KozWXZcklc3/aMDuvJcgDcD4xayFdEFOVIlkL4DwuA5mAB+Hfk+lioSPFhvqSgH8ZssHGMNXszZY/B+dHAUumEbZEJYQDjgCXz76Jz/e0WX5EgM8QK/zyRmYgyka2Fi/2zd0XWMeSczGWFz56fLXlcVMR343AycVgCmNqNQUTx89sGc92/4MbNNtl1/9yfL3klmm8KV7embD2tM+X64+waut8HYLaQJb/fGZPGuUdx6lwViwlMA1yW57jw5ZQhnNA3Ix4NOpQFCTAFpyw+qLSVI3BhTBimc6J5dfyQJ91s4A/0LfCWeCe5+ER02Dm0+EddptZdsd0iYePEgdELs7MP3B0B2HTp+RaeSvSWVVBPU86hAG5trR1f9A4/l1yG0wk8FHpUyeEFuyMluQ5tDBym0V3GC3G24G8vq+KeqwnVtbiKSHA7St8N2gAafRNKYAsAplYKfhsSNMWWQBokCc9krUdWV1T3ODMJGhnwotSQgOmFJ2AqC72tr+qyFZmvSoFmHq+jOli873WwVHt4vHb5o4Ace+FbJlKV6xxEedGtvFzmVFxD3umhmWRAfnjrYHz6r+2SLXlUiktzN3J+7mGsHMomZ5EjrwktlKr5f0KtMptwLSOYmtIc+GRGmbFrYAjOP+9CYk/A2ordUxAAOuvFQzPcM6vNa+MNOcGYhXNCtGTXrIdimnIJMvxAxY0RA3vT/KzBRiOhFS1cnp8LI7wWy29ydKV2JPvifTi4rjRxHF33udopEITChYeE6KF63gAt1enyge/hgA4f8ETvE5xnx41K5bdE2TWo3It1qfHTHgHDY1YUIT0nBvnvulkUhdf2emEQkOUWGy6/1+DLlWgJP9ChVKKf3LNz+nX4IVNTVLId/w29A7VqCz8fgI7bl+UlNxMYsChYQJXsGesTlE+qL50dzRDg5/QTJpiO7/0Ue5IKuBR/KX/UTG3nj3ksY4nwzO7fju5V1i3YZQRDcixxwsm45zBtfh0QeFDl26BioKM20LqjYuvAuFKr7pIbOwb6aSghQb64fPfsE0HsspDusG6FsMP45U0W9q+DQjljcufVsH6wS+8JMe7jg2mA4m86GrfpBEH2n1128M9pDHQyR/NVT78or8Ppegkif3LMi0f4G0bc4hfP8c+oeDTlnGm1+dnwbASMIGFJXaN8fptzX+KWxkVzDxxnp1XyTw9+279gIWI+AIZJTsTigayXEvqk9n1B3sPoprwgY5VjfGjtHG4EQCBgmudvnJOP0sBP6IfIOeQl5TCpwCXsAGhId+2I8EDBM8snb5+/HwPENC1SWfkITM6PZ+xePhtt5HjsIGCY5zYggLAc0puzLA3Pml60f2zLq2IHZbmkyETBMcqqkN8tvCKO7hGqwMUM1lV1F01AG49vRbARiRiAqktPSLlj5Eon0mEtEQkhzsk2cuXbULF1jdzNl2GltBIIIRLRdCUYMfmMp9R9Y+7wNMnhg8Fos31hEGAbfCDdAN/+BmTMqYynbTpN4BFacPrvI6ZZno2RMOvASSDnsqGONXNM2uhXfZqvOGArVsqjVBbILb9VanoY4vjJUhtFcg63C50wTl1Zuq0lJO+po2mLHDY0AziByuPa0XoIV89l4/Z+DWLlEuh6qQCv+3ID7S+hMTiOu8EKXFP5q1CSnrGrLqi7DYet/xGYIspWOPUDrwb9nWn3qDUZdfsVemJ0y0QjQekgfh3IHpDZ52irUKx88aAanHqKzOa3wpdizrKh08mDC7rPMxbvBv2P+Ruuh9kwrcjrIJYEdMggBmlQodCk3oovhj1Gf4NRsxCvGOK0avhRvorRWQhETyf0DUK49hfGnacN/AJCPl9fd5ILMyobZeSUXgXVj7oBbOr8EzzFaE3AhF5z64dpRVWcaTWMkXkwkp4x9Eg4fJaszUkikOHhyz/Zq3tvsBaJISKXHfZLEGG9di9qWRltjSPPBXMibrHRIFTPJz6tf+BkaQNLclJ05gYAnmOpx87oxB6bQ33ZIbwQ2jJ01EPrG+ejXqBviT8PZ1JLykqgfkHCFxUxyyhCbT5/FU2uJNEfj4BxS+emaUbeZ2WYXrp329QQioPr4cBR3fMxFSjZYqOLEmNP3SmiK5BXbaz7Fw/qEFbo51QsWiudy7rw709xX9MI84/+EJ6H+aKSZmTccwaMVWAWUKZJTJVSPugwvpY2WVAhqC7ba3dAiW6+yJD87k3RFQGOKMD2pEWy8aZKf9+ESbFjl5O0VnpAsCDhZAJPnP8bO8PEW5GZnkQQEuPT70DSz98AdOJPUktqbJjnVos2pkOOZ5bSyY0ng/ASMRuetGz17mCX52ZkkFAFvjiTXgttNFLorcCapiSz+m9QSktP2OJwoMQ8c3/PfrGP/1T0mlxUa53NpQ2vsOdkpk4EAraNgevnZWGbekAY2LfLZcVsWWcIlar8lJKeMxjf0XY+R4+PdlaQr5kL39JP8OpwRVL9z5o255nKzUycaAdWn4oArtiKacgN6wFqncD0BQWeRWmAhycmSEBPmS1E5XeeL0TQaRFfw4NyE4/ruAtEx4rZDuiBAYzUh+R1waPo2BJ+xaktZr3H5fau9OVgmyakVtECkMfFTNKrFWKsixwLRXZhymeNuz72dLNoip7BjpAoCFQ0174MPV0MmPwNOHAo3ZsM9H1xg/0tq/NqJOgdoxdouy8/yuWbsBR8r7V1FqNB4ELRbvY61dsF03Z5UKxzt7rarx1648feNK8kW2Q5pgMBv963bf03+hS87stxvaxprx7I9rGoh3xlO1GA4alGyNThTaD72Ftw/ob5mRzyaZA0Je9Vs/dhZgzSVL0N7Jve6ZepPkgYA5/54mGOaqpid2DACtHnC0cH7KkzABbR2qNBZuNdq09relYkLyamQ2tHfq8CpXs/SKbq9CzXzN4iO+Xg+H9OWD9Osjpm87LTHBgKW6uQ9IatoWFyLV9P9ICW9liwL0IBguinvzvP45tMR2JZlbGeUsQjEjeSEWIvP93uMqx8jHcxKBEF0J7T9Gx0u5Un4tbZdW1gJbgbmFTd1JYjVipF39s9yqL/BLNKlVo1Dg3nj4aGfm6Cnz6msX/TP4HX7OzoE1pTPOl5RuRjfsLAxupTpETvuJCcYVo++Y6TC5R8x523pjo8gxBir78EIfR7Tsn5VuW3uoeB1+1sfAYgIjrOAYPfNHoSg2M+cjmsmbJ5n2UqjfumJu5sQklNz/AZXnD0NaX5SPJoHqe5FY3CSGn+A5mfjUUYm5UnmElLTbgHPv4c+GeBXKSX/eavPNyfTNpUnjOREkDVld1wM49wnBRdx2c8ZUF8+gFR6pN3pXGbPvhz9WJL0XjumqhK2+3Saw5dA8MNrJcAP57bK70H1e/LolOl7JaEkJ5jwepwJ1WIxwO0XL9jQWW705Ysa1+bHYwUtXvWOd76rymYPcXB+M/C5CR0/COsYRxUJ1W+3VOT/4KiSNUfdTNMLR7cyzg3x64Fjqq7HEu88ED1+FoYYlKKsJpTxBMj+pNHzZeLc/KRkTyeF5HvVSyG9/Q5+gIluv+MhWOfDIbyTtiz4JCkVtrhQ3cZaXNbh7GhX/tqy5m9iHv0R4B03iU4FosPo6318P8Zdzj9n4sCKGhgqkHOfQodjElC4FYN+2lhsyD0EsKKzvH+fldNxq975m6HKTMVrSSE5AUFEX1fWfDXQJIke90Ud9Bt5FdgIy4nfkDuNgLeBVOwT03Xye65SnBVcqDdCbbsI+Op6rwpVIPByo5N+WNGwsAYk8UuKUPHS4VrSSE7gADkaBF0Bi50F6AjLXBDoAe8nu2Rb8BZZpjL+18qGBR+keycG20t2IS4Pn8Q0eTUk8ZfQrqJQencwfqRvYLUXZhnX0rGGkeKm8v2kkjwIDKazLsSAZxEqM9JMpwTzM/KNDgQP+MfQ3Jdzrj3v6sp556yPHiHnk2kV/G/E8tbhaM9FkBpXoPJnGVVLjDQUJrA4qFhcMbFhgZntbEaKiluclCA5tW71mFnjYGS/GBU6J1FEp3KJ7Aht+GzCz5elkG/4uLcunq6EqUAzgd6A60ZWlWhCjoNbpku55JPwsA4DuS3vz25hwP7qzmI3+Le1mal4ktJaDoqZdkCij8B2t/kQsWQCkPC6BQh/AAVvhgRbwRW+xsmcWxvrGvfGw6VwNFjVDq3KUfP5cQqTZwGfqZJrE7DwNRx1dcVbKAAXH7rjQffAwvuNHCEeTbsSETfhRIrUKLIsVByOexmX3wGwhmYDIuUZy/2ABMP5pWwX5P17INTbXGjvqT7lY5/TvSeekp78AA4tH1qIww5KNSZPFoKdhV0GZ8PVw2gQfDA6zRFvYvfGDHi04ijxGydsrXkO5ftff73jpOrfKUdyAso/9eVUvoWf94LoSXcb5+/RbrWGfMvsxWcXgKNdLDtwr1FqYrfgcp/XwVs0D+90csXtded6C/o1qR9tbD5sgTlgcjkfuJeJzuwmB2sudrrz1SytS81nQi1WFGUASH285AzSWZ6MfIeBSkNBalpLwBpO8rsKRF/tkN7LxjUs3Y86pU1IPnI6UGF1dBI6/UEIjopU6OTeVSVpj0Ak7sKHtna1QTcm/R7f/r+74FjeK/BawjXo/8yB+y7/G0qyXBAYbqvp43dfTR4JsiheqrU10M634Nvhnk/rPn0z2aobYRRNSGmSU0PWn3r7UNUr7gGBrkPv50XTODuueQSwFaALuC8TGvtJupripjzJqZvIAWizbMF8Ovtf/FmWapLOPJVSLweS3jTFCtfFj7CD4qmK3TXWuAFMQlPTguRBXAJ26XPwyp8OotOr3g5xQAAE9yLb/4Mj/QcmNiy2xplrHOppNMu0Ijk1yr9k7XJMwyrpnfjzbJA97dpgtHMSHS+ge3+AcmsUr/rMuR8uOZjoOsSjvLQliN9ZP1e+DY5/G8AcZ3PdHD1AcFrtfU4obMH4LQvrzeWWWqnTluRBGNeWzz4d8xu3Yk7icsxfFNtkDyJj7Bvk9mDqZxU8BtZk57b9E1aHpKpkVEh7klNvkJ9Ed1fuRMwzfxejpQvQqIJEL5akGytAbhXz8O9iA8uvvVn8+XRdsjeCe0aQPNjQFcOqs7PyWifDNOAGkP18XC+0JXsQne5vP7kZew/fv3U42HPnbln0nyNjZN5fGUXyYPcQ2Z1ZB8dzRbsWnXkhpsIGH+tkBw60JRD29NpTDu56wWrPsUHsU/E7I0keBJpsQErLS09hml9fn4bro0H2Y8YFNIhNUOzHlOsqxsUywdm/YBt+IIjPsfKd0STv2Ym0iRedPFVI9nUYPVVkrHQHsUFtNz7b0MZXsL/1b4c82qZMczPRs28j/T5mSB4EglZPW9XWUaDC+TRIxfUz8BmQ1upMN7E9aEcjiL0aZsIvuxRn7bGkkgT7N9T3MUfyniDQMS2eznwQXquEycBk6KxngPyliENGVD2jptzvgCpCc9tkCbkO4vsN1SHePm/Lgt2ouV9PSblKJ6lCqd2TCQSFpiG97bmlPsZPUYQcD5Z8ATtuRoL0g1ANshBMmnVggNBk7UgHTpGbiC2wCNzANW2jwtRt6Wb6SlgmMtgkD4O2f4Ymr3kg8yknMa6WQ7KPAfFPxm7/odhAQW40yHaGTGOh6iOYlfzdKgflRIsxXSBzK9SpPXjIduI4mQYMnkFsXu/28U8mby/A7qXqw3bqlMgO4RGwSR4em6PukHrT7s7vJzS1hGu8FOANg737cdCDoeLIgUhA5KfjsvNxLxsPBU5TYOSGDc9I9zEi+E0nDWM6j5Hf9jakbcGCzD6oS5/D7u8TqE6NuL5LUfjuLo+yt6DgUGsmrkKijXawEbARsBGwEbARsBGwEbARsBGwEbARsBGwEbARsBGwEbARsBGwEbARsBGwEbARsBGwEbARsBGwEYiIwP8DcE+wYuiKXXAAAAAASUVORK5CYII=;" vertex="1" parent="1">
          <mxGeometry x="770" y="85" width="40" height="40" as="geometry" />
        </mxCell>
        <mxCell id="aSwbKpvJS9M24WGZRWCX-29" value="" style="curved=1;endArrow=classic;html=1;rounded=0;entryX=0.5;entryY=0;entryDx=0;entryDy=0;exitX=0.75;exitY=1;exitDx=0;exitDy=0;dashed=1;" edge="1" parent="1" source="aSwbKpvJS9M24WGZRWCX-28" target="aSwbKpvJS9M24WGZRWCX-13">
          <mxGeometry width="50" height="50" relative="1" as="geometry">
            <mxPoint x="760" y="165" as="sourcePoint" />
            <mxPoint x="810" y="115" as="targetPoint" />
            <Array as="points">
              <mxPoint x="840" y="135" />
            </Array>
          </mxGeometry>
        </mxCell>
        <mxCell id="aSwbKpvJS9M24WGZRWCX-30" value="ENV" style="edgeLabel;html=1;align=center;verticalAlign=middle;resizable=0;points=[];" vertex="1" connectable="0" parent="aSwbKpvJS9M24WGZRWCX-29">
          <mxGeometry x="-0.1413" y="-2" relative="1" as="geometry">
            <mxPoint y="1" as="offset" />
          </mxGeometry>
        </mxCell>
        <mxCell id="aSwbKpvJS9M24WGZRWCX-31" value="&lt;div&gt;CDN_PREFIX&lt;/div&gt;TIMESHEET_JS_INIT&lt;div&gt;TIMESHEET_JS_BACKUP_INIT&lt;/div&gt;&lt;div&gt;OMNI_CHANNEL_JS_URL&lt;/div&gt;" style="text;html=1;whiteSpace=wrap;strokeColor=#6c8ebf;fillColor=#dae8fc;align=left;verticalAlign=middle;rounded=0;" vertex="1" parent="1">
          <mxGeometry x="900" y="35" width="180" height="65" as="geometry" />
        </mxCell>
        <mxCell id="aSwbKpvJS9M24WGZRWCX-32" value="" style="endArrow=none;dashed=1;html=1;dashPattern=1 3;strokeWidth=2;rounded=0;entryX=0;entryY=1;entryDx=0;entryDy=0;" edge="1" parent="1" target="aSwbKpvJS9M24WGZRWCX-31">
          <mxGeometry width="50" height="50" relative="1" as="geometry">
            <mxPoint x="850" y="135" as="sourcePoint" />
            <mxPoint x="900" y="115" as="targetPoint" />
          </mxGeometry>
        </mxCell>
      </root>
    </mxGraphModel>
  </diagram>
</mxfile>
